<svg width="38" height="38" viewBox="0 0 38 38" fill="none" xmlns="http://www.w3.org/2000/svg">
<g clip-path="url(#clip0_876_58150)">
<path d="M19.0001 0C8.52336 0 0 8.52336 0 19.0001C0 29.4768 8.52336 38.0002 19.0001 38.0002C29.4768 38.0002 38.0002 29.4768 38.0002 19.0001C38.0002 8.52336 29.4766 0 19.0001 0ZM19.0001 32.0388C11.7989 32.0388 5.96138 26.2011 5.96138 19.0001C5.96138 11.7989 11.7991 5.96138 19.0001 5.96138C26.2011 5.96138 32.0388 11.7991 32.0388 19.0001C32.0388 26.2013 26.2013 32.0388 19.0001 32.0388Z" fill="#C8FF80"/>
<path d="M22.9515 18.8213C22.1452 18.0987 20.9442 17.5463 19.3792 17.1789C18.2372 16.9166 17.7163 16.6249 17.4757 16.4224C17.2043 16.1992 17.078 15.9097 17.078 15.5066C17.0741 15.0167 17.2081 14.722 17.5173 14.4635C17.8451 14.1843 18.3623 14.0741 19.0184 14.0741H19.0556C19.6311 14.0741 19.8263 14.1547 20.1339 14.4247C20.429 14.6836 20.6203 15.1075 20.7048 15.7355L20.8046 16.3453L23.8377 16.3218L23.8111 15.5554C23.7403 14.2202 23.2289 13.1442 22.2861 12.3558C21.6996 11.8777 21.1789 11.5492 20.4192 11.3739L20.4114 9.65576L17.2675 9.67729L17.2808 11.4597C16.589 11.6508 15.9709 11.9706 15.439 12.4126C14.4573 13.2242 13.9638 14.2773 13.972 15.5429C13.9782 16.6496 14.3795 17.5883 15.1675 18.3355C15.8928 19.015 16.9712 19.525 18.3715 19.8508C19.7401 20.1715 20.3724 20.5092 20.6603 20.735C21.0018 21.0052 21.1541 21.3379 21.1541 21.8145C21.1541 22.4368 20.9833 22.8772 20.6149 23.202C20.2272 23.5463 19.6471 23.7241 18.8947 23.7301C18.1384 23.7301 17.8243 23.5675 17.4367 23.2194C17.0639 22.8964 16.8856 22.4427 16.8751 21.7803L16.8488 21.0683L13.8273 21.079L13.7451 22.1257L13.746 22.1546C13.7795 23.2805 14.2962 24.282 15.2901 25.1383C15.9829 25.7116 16.5721 26.104 17.3591 26.3133L17.3723 28.3437L20.5171 28.3355L20.5019 26.3076C21.3599 26.0969 22.1003 25.7184 22.7034 25.1833C23.7414 24.2962 24.2638 23.1454 24.2557 21.7661C24.2548 20.6108 23.8046 19.5935 22.9515 18.8213Z" fill="#C8FF80"/>
</g>
<defs>
<clipPath id="clip0_876_58150">
<rect width="38" height="38" fill="white"/>
</clipPath>
</defs>
</svg>
