<svg width="41" height="41" viewBox="0 0 41 41" fill="none" xmlns="http://www.w3.org/2000/svg">
<path d="M20.5 0C31.8218 0 41 9.17816 41 20.5C41 31.8218 31.8218 41 20.5 41C9.17816 41 0 31.8218 0 20.5C0 9.17816 9.17816 0 20.5 0ZM13.8994 10.8193C13.7367 10.8193 13.5801 10.8359 13.4297 10.8633H11.4062V13.0605C11.3856 13.2437 11.3854 13.4295 11.4062 13.6152V30.6748H15.8975V19.1855L26.4941 30.6748H32.459L18.1895 15.2041H24.4365C26.0054 15.2042 27.2772 16.4761 27.2773 18.0449V21.9209H31.6621V18.0449C31.6619 14.0545 28.427 10.8194 24.4365 10.8193H13.8994Z" fill="#C8FF80"/>
</svg>
