<svg width="38" height="37" viewBox="0 0 38 37" fill="none" xmlns="http://www.w3.org/2000/svg">
<path d="M36.7742 9.68382C37.0995 9.68382 37.411 9.55472 37.641 9.3248C37.8709 9.09488 38 8.7833 38 8.45802V4.90328C38 3.60263 37.4836 2.35546 36.5639 1.43612C35.6446 0.516429 34.3974 0 33.0967 0H4.90332C3.60267 0 2.35551 0.516417 1.43616 1.43612C0.51647 2.35536 4.10049e-05 3.60263 4.10049e-05 4.90328V24.5164C-0.00497719 25.7436 0.450766 26.9283 1.27652 27.8362C2.10269 28.744 3.23958 29.3087 4.46163 29.4192L10.5172 35.5481C10.9757 36.0162 11.603 36.2812 12.2581 36.284C12.5774 36.2822 12.8935 36.2197 13.1896 36.1001C13.6449 35.9126 14.0336 35.5928 14.3046 35.1818C14.576 34.7708 14.717 34.2877 14.7097 33.7954V29.4191H33.0965C34.3972 29.4191 35.6443 28.9027 36.5637 27.983C37.4834 27.0638 37.9998 25.8165 37.9998 24.5163V14.7099C37.9998 14.0329 37.451 13.4841 36.774 13.4841C36.097 13.4841 35.5482 14.0329 35.5482 14.7099V24.5163C35.5482 25.1664 35.29 25.79 34.8302 26.2494C34.3708 26.7093 33.7472 26.9675 33.0966 26.9675H13.4847C12.8077 26.9675 12.2589 27.5163 12.2589 28.1933V33.7954L5.87252 27.3357C5.60518 27.0985 5.26075 26.9675 4.90401 26.9675C4.25393 26.9675 3.63033 26.7093 3.17043 26.2495C2.71058 25.7901 2.45238 25.1665 2.45238 24.5164V4.90328C2.45238 4.2532 2.71058 3.6296 3.17043 3.1697C3.63028 2.70979 4.25389 2.45165 4.90401 2.45165H33.0974C33.7479 2.45165 34.3716 2.70985 34.831 3.1697C35.2908 3.62954 35.549 4.25316 35.549 4.90328V8.45802C35.549 8.7833 35.6782 9.09487 35.9081 9.3248C36.138 9.55473 36.45 9.68382 36.7748 9.68382H36.7742Z" fill="#C8FF80"/>
<path d="M20.8358 20.839H28.1906H28.1902C28.8407 20.839 29.4643 20.5803 29.9238 20.1209C30.3836 19.6611 30.6418 19.0374 30.6418 18.3873H31.8676C32.1929 18.3873 32.5049 18.2582 32.7344 18.0283C32.9643 17.7984 33.0934 17.4863 33.0934 17.1615V14.7099C33.0934 14.3847 32.9643 14.0731 32.7344 13.8432C32.5049 13.6132 32.1929 13.4841 31.8676 13.4841H30.6418C30.6418 12.8336 30.3836 12.2105 29.9238 11.7506C29.4644 11.2907 28.8407 11.0325 28.1902 11.0325H20.8358V8.24973C21.5935 7.81223 22.0606 7.00432 22.0616 6.12935C22.0675 5.55135 21.8695 4.98978 21.5023 4.54363C21.135 4.09747 20.6218 3.79593 20.0534 3.691C19.485 3.58653 18.8979 3.68643 18.3961 3.97247C17.8938 4.25851 17.5093 4.71288 17.3094 5.25526C17.1096 5.79763 17.1083 6.39301 17.3049 6.93639C17.5015 7.47972 17.8838 7.93638 18.3842 8.2256V11.0326H9.80359C9.15306 11.0326 8.52992 11.2908 8.07002 11.7506C7.61011 12.2105 7.35197 12.8336 7.35197 13.4842H6.12618C5.44918 13.4842 4.90039 14.033 4.90039 14.71V17.1616C4.90039 17.4864 5.0295 17.7984 5.25941 18.0283C5.48933 18.2583 5.80092 18.3874 6.12619 18.3874H7.35198C7.35198 19.0374 7.61018 19.661 8.07003 20.1209C8.52988 20.5803 9.15304 20.839 9.80361 20.839H17.1585L15.9327 19.6132V18.3874H22.0616V19.6132L20.8358 20.839ZM13.4809 17.1616C12.985 17.1616 12.538 16.8628 12.3482 16.4048C12.1584 15.9467 12.2633 15.4194 12.6141 15.0689C12.9645 14.7181 13.4919 14.6132 13.9499 14.803C14.408 14.9928 14.7068 15.4398 14.7068 15.9357C14.7068 16.2605 14.5777 16.5726 14.3477 16.8025C14.1178 17.0324 13.8057 17.1616 13.4809 17.1616ZM24.5131 14.71C25.0086 14.71 25.4556 15.0084 25.6454 15.4664C25.8352 15.9244 25.7303 16.4518 25.3799 16.8025C25.0291 17.1529 24.5017 17.2578 24.0438 17.068C23.5857 16.8783 23.2874 16.4312 23.2874 15.9358C23.2874 15.2588 23.8362 14.71 24.5131 14.71Z" fill="#C8FF80"/>
</svg>
