<svg width="53" height="53" viewBox="0 0 53 53" fill="none" xmlns="http://www.w3.org/2000/svg">
<rect width="53" height="53" rx="26.5" fill="#C8FF80"/>
<path d="M31.2561 22.6433L27.3461 18.6814C27.1391 18.4658 26.8914 18.2944 26.6176 18.1774C26.3439 18.0603 26.0496 18 25.7524 18C25.4551 18 25.1609 18.0603 24.8871 18.1774C24.6134 18.2944 24.3656 18.4658 24.1586 18.6814L20.238 22.6433L25.7311 25.4134L31.2561 22.6433ZM32.7563 24.2431L33.532 25.0269C33.7467 25.2353 33.9174 25.4854 34.0341 25.7621C34.1508 26.0389 34.2109 26.3366 34.2109 26.6374C34.2109 26.9382 34.1508 27.236 34.0341 27.5127C33.9174 27.7895 33.7467 28.0395 33.532 28.2479L27.2838 34.6242C27.1357 34.7773 26.9633 34.9043 26.7738 35V27.2709L32.7563 24.2431ZM18.6655 24.2431L17.8899 25.0269C17.6752 25.2353 17.5044 25.4854 17.3878 25.7621C17.2711 26.0389 17.2109 26.3366 17.2109 26.6374C17.2109 26.9382 17.2711 27.236 17.3878 27.5127C17.5044 27.7895 17.6752 28.0395 17.8899 28.2479L24.1388 34.6242C24.2875 34.7774 24.4597 34.9048 24.6488 35V27.2709L18.6655 24.2431Z" fill="#050505"/>
</svg>
