<svg width="50" height="50" viewBox="0 0 50 50" fill="none" xmlns="http://www.w3.org/2000/svg">
<path d="M20 12.5H2.5C1.83696 12.5 1.20107 12.7634 0.732233 13.2322C0.263392 13.7011 0 14.337 0 15V50H22.5V15C22.5 14.337 22.2366 13.7011 21.7678 13.2322C21.2989 12.7634 20.663 12.5 20 12.5ZM10 45H5V40H10V45ZM10 37.5H5V32.5H10V37.5ZM10 30H5V25H10V30ZM10 22.5H5V17.5H10V22.5ZM17.5 45H12.5V40H17.5V45ZM17.5 37.5H12.5V32.5H17.5V37.5ZM17.5 30H12.5V25H17.5V30ZM17.5 22.5H12.5V17.5H17.5V22.5ZM48.515 9.34L27.5 0V50H50V11.625C50.0001 11.1413 49.8598 10.668 49.5962 10.2624C49.3326 9.85679 48.957 9.53639 48.515 9.34ZM45 40H32.5V35H45V40ZM45 30H32.5V25H45V30ZM45 20H32.5V15H45V20Z" fill="black"/>
</svg>
