<svg width="33" height="33" viewBox="0 0 33 33" fill="none" xmlns="http://www.w3.org/2000/svg">
<g clip-path="url(#clip0_876_58129)">
<path d="M27.2633 9.09143L19.6733 1.4808C19.2715 1.06666 18.7906 0.737411 18.2591 0.51257C17.7277 0.287729 17.1566 0.171875 16.5795 0.171875C16.0025 0.171875 15.4313 0.287729 14.8999 0.51257C14.3685 0.737411 13.8876 1.06666 13.4858 1.4808L5.87514 9.09143L16.5383 14.4127L27.2633 9.09143ZM30.1755 12.1646L31.6811 13.6702C32.0979 14.0705 32.4294 14.5509 32.6559 15.0825C32.8824 15.6142 32.9991 16.1861 32.9991 16.7639C32.9991 17.3418 32.8824 17.9137 32.6559 18.4453C32.4294 18.977 32.0979 19.4573 31.6811 19.8577L19.5523 32.1062C19.2648 32.4003 18.9302 32.6442 18.5623 32.8281V17.9808L30.1755 12.1646ZM2.82264 12.1646L1.31702 13.6702C0.900291 14.0705 0.568737 14.5509 0.342253 15.0825C0.115769 15.6142 -0.000976562 16.1861 -0.000976562 16.7639C-0.000976562 17.3418 0.115769 17.9137 0.342253 18.4453C0.568737 18.977 0.900291 19.4573 1.31702 19.8577L13.4473 32.1062C13.736 32.4004 14.0701 32.6452 14.4373 32.8281V17.9808L2.82264 12.1646Z" fill="#C8FF80"/>
</g>
<defs>
<clipPath id="clip0_876_58129">
<rect width="33" height="33" fill="white"/>
</clipPath>
</defs>
</svg>
