<svg width="53" height="53" viewBox="0 0 53 53" fill="none" xmlns="http://www.w3.org/2000/svg">
<rect width="53" height="53" rx="26.5" fill="#C8FF80"/>
<path d="M19.5799 33.625C19.3491 33.6217 19.129 33.5274 18.9674 33.3625C18.0854 32.4775 17.3876 31.4263 16.9145 30.2698C16.4414 29.1133 16.2024 27.8745 16.2112 26.625C16.2112 24.0723 17.2252 21.6241 19.0303 19.8191C20.8353 18.0141 23.2835 17 25.8362 17C28.3889 17 30.837 18.0141 32.6421 19.8191C34.4471 21.6241 35.4612 24.0723 35.4612 26.625C35.47 27.8745 35.2309 29.1133 34.7578 30.2698C34.2847 31.4263 33.587 32.4775 32.7049 33.3625C32.6297 33.4628 32.5338 33.5457 32.4237 33.6058C32.3137 33.6658 32.192 33.7014 32.0669 33.7103C31.9419 33.7192 31.8164 33.7011 31.699 33.6573C31.5815 33.6134 31.4748 33.5449 31.3862 33.4562C31.2976 33.3676 31.229 33.2609 31.1852 33.1435C31.1413 33.026 31.1232 32.9005 31.1321 32.7755C31.141 32.6504 31.1767 32.5287 31.2367 32.4187C31.2967 32.3086 31.3796 32.2127 31.4799 32.1375C32.5598 31.0278 33.2886 29.6244 33.5751 28.1028C33.8617 26.5811 33.6933 25.0087 33.091 23.5823C32.4888 22.1558 31.4793 20.9385 30.189 20.0827C28.8986 19.2268 27.3846 18.7703 25.8362 18.7703C24.2878 18.7703 22.7737 19.2268 21.4834 20.0827C20.193 20.9385 19.1836 22.1558 18.5813 23.5823C17.979 25.0087 17.8106 26.5811 18.0972 28.1028C18.3838 29.6244 19.1125 31.0278 20.1924 32.1375C20.2773 32.2154 20.3451 32.31 20.3914 32.4155C20.4378 32.5209 20.4617 32.6348 20.4617 32.75C20.4617 32.8652 20.4378 32.9791 20.3914 33.0845C20.3451 33.19 20.2773 33.2846 20.1924 33.3625C20.0309 33.5274 19.8107 33.6217 19.5799 33.625Z" fill="black"/>
<path d="M25.2235 22.5124L21.7235 25.9687C21.5719 26.1236 21.4799 26.3272 21.4639 26.5433C21.4479 26.7595 21.5089 26.9744 21.636 27.1499C21.7068 27.2554 21.8008 27.3432 21.9108 27.4066C22.0209 27.4701 22.144 27.5074 22.2707 27.5159C22.3975 27.5243 22.5244 27.5036 22.6419 27.4554C22.7594 27.4071 22.8643 27.3325 22.9485 27.2374L24.961 25.2249V35.3749C24.961 35.607 25.0531 35.8296 25.2172 35.9937C25.3813 36.1577 25.6039 36.2499 25.836 36.2499C26.068 36.2499 26.2906 36.1577 26.4547 35.9937C26.6188 35.8296 26.711 35.607 26.711 35.3749V25.2249L28.7235 27.2374C28.8076 27.3325 28.9125 27.4071 29.03 27.4554C29.1475 27.5036 29.2745 27.5243 29.4012 27.5159C29.5279 27.5074 29.651 27.4701 29.7611 27.4066C29.8711 27.3432 29.9651 27.2554 30.036 27.1499C30.1631 26.9744 30.224 26.7595 30.208 26.5433C30.192 26.3272 30.1 26.1236 29.9485 25.9687L26.4485 22.5124C26.3706 22.4276 26.2759 22.3598 26.1705 22.3135C26.0651 22.2671 25.9511 22.2432 25.836 22.2432C25.7208 22.2432 25.6069 22.2671 25.5014 22.3135C25.396 22.3598 25.3013 22.4276 25.2235 22.5124Z" fill="black"/>
</svg>
