<svg width="36" height="36" viewBox="0 0 36 36" fill="none" xmlns="http://www.w3.org/2000/svg">
<path d="M27.1421 7.48106H26.9324V4.48856C26.9324 2.0046 25.0023 0 22.6231 0H4.11475C2.03469 0 0.358919 1.85539 0.0449195 4.4437C0.0148491 4.71322 0 4.99759 0 5.29681V27.3671C0 29.6112 1.91517 31.4217 4.2792 31.4217H19.4508C20.2738 31.4217 20.9468 30.7483 20.9468 29.9256C20.9468 29.1026 20.2734 28.4296 19.4508 28.4296L4.2792 28.4292C3.56086 28.4292 2.9925 27.9503 2.9925 27.3667V10.2792C3.35148 10.4139 3.72569 10.4737 4.11478 10.4737H27.1421C27.8604 10.4737 28.4288 11.0124 28.4288 11.6858V19.4513C28.4288 20.2743 29.1022 20.9474 29.9248 20.9474C30.7479 20.9474 31.4209 20.274 31.4209 19.4513V11.6858C31.4213 9.36673 29.5061 7.48121 27.1421 7.48121L27.1421 7.48106ZM23.9403 7.48106H4.11475C3.66592 7.48106 2.99247 6.61349 2.99247 5.17681C2.99247 3.86037 3.66589 2.9925 4.11475 2.9925H22.6231C23.3562 2.9925 23.9398 3.66592 23.9398 4.48856L23.9403 7.48106Z" fill="#C8FF80"/>
<path d="M35.5513 30.9874C35.267 31.2718 34.8779 31.4214 34.504 31.4214C34.115 31.4214 33.7408 31.2718 33.4415 30.9874L31.4514 28.9973V34.5035C31.4514 35.3265 30.7779 35.9995 29.9553 35.9995C29.1323 35.9995 28.4592 35.3261 28.4592 34.5035V28.9376L26.4093 30.9875C26.1249 31.2719 25.7359 31.4215 25.3468 31.4215C24.9726 31.4215 24.5835 31.2719 24.2995 30.9875C23.7159 30.4039 23.7159 29.4465 24.2995 28.863L28.878 24.2994C29.0873 24.09 29.3569 23.9552 29.626 23.9103C30.1235 23.8435 30.6284 23.9251 31.0025 24.2994L35.5512 28.863C36.1497 29.4466 36.1497 30.404 35.5512 30.9875L35.5513 30.9874Z" fill="#C8FF80"/>
</svg>
