<svg width="53" height="53" viewBox="0 0 53 53" fill="none" xmlns="http://www.w3.org/2000/svg">
<rect width="53" height="53" rx="26.5" fill="#C8FF80"/>
<path d="M20.2109 21C20.2109 20.4469 19.7641 20 19.2109 20C18.6578 20 18.2109 20.4469 18.2109 21V31.5C18.2109 32.8813 19.3297 34 20.7109 34H33.2109C33.7641 34 34.2109 33.5531 34.2109 33C34.2109 32.4469 33.7641 32 33.2109 32H20.7109C20.4359 32 20.2109 31.775 20.2109 31.5V21ZM32.9172 23.7063C33.3078 23.3156 33.3078 22.6813 32.9172 22.2906C32.5266 21.9 31.8922 21.9 31.5016 22.2906L28.2109 25.5844L26.4172 23.7906C26.0266 23.4 25.3922 23.4 25.0016 23.7906L21.5016 27.2906C21.1109 27.6812 21.1109 28.3156 21.5016 28.7063C21.8922 29.0969 22.5266 29.0969 22.9172 28.7063L25.7109 25.9156L27.5047 27.7094C27.8953 28.1 28.5297 28.1 28.9203 27.7094L32.9203 23.7094L32.9172 23.7063Z" fill="black"/>
</svg>
