<svg width="37" height="37" viewBox="0 0 37 37" fill="none" xmlns="http://www.w3.org/2000/svg">
<path fill-rule="evenodd" clip-rule="evenodd" d="M36.5089 0C35.6967 11.0603 32.8144 19.0666 27.862 24.019C26.9837 24.8973 26.0221 25.7002 24.977 26.4277L24.977 30.7354L19.2124 36.5L15.6947 30.3442L6.17213 20.8206L0 17.2937L5.76456 11.5291L10.0951 11.5292C10.8161 10.4831 11.6143 9.52237 12.4899 8.64684C17.4423 3.69445 25.4486 0.812175 36.5089 0ZM32.1855 4.3215L31.3631 4.4462C23.9886 5.60672 18.6235 7.94811 15.2073 11.3643C13.1508 13.4208 11.5865 16.0986 10.5272 19.4447L10.4569 19.6706L16.8959 26.1096L17.2145 26.0095C20.2238 24.9991 22.6957 23.5813 24.6632 21.7642L25.1446 21.3016C28.5608 17.8854 30.9021 12.5203 32.0627 5.14575L32.1855 4.3215ZM6.84452 24.2623L2.76837 28.3385L0.0509274 25.621L4.12709 21.5449L6.84452 24.2623ZM10.9207 28.3385L4.12709 35.1321L1.40965 32.4146L8.20324 25.621L10.9207 28.3385ZM12.2794 29.6972L14.9968 32.4146L10.9207 36.4908L8.20324 33.7733L12.2794 29.6972ZM22.0975 11.5291C23.6893 11.5291 24.9798 12.8196 24.9798 14.4114C24.9798 16.0032 23.6893 17.2937 22.0975 17.2937C20.5056 17.2937 19.2152 16.0032 19.2152 14.4114C19.2152 12.8196 20.5056 11.5291 22.0975 11.5291Z" fill="#C8FF80"/>
</svg>
