<svg width="306" height="31" viewBox="0 0 306 31" fill="none" xmlns="http://www.w3.org/2000/svg">
<path d="M305.197 30.0964H300.171L284.803 9.15062V30.0383H280.998V4.90918H286.372L301.42 25.3611V4.90918H305.197V30.0964Z" fill="white"/>
<path d="M253.758 18.3014C253.778 18.4563 253.797 18.6791 253.816 18.9696C253.855 19.2601 253.991 19.783 254.223 20.5383C254.456 21.2936 254.756 21.9812 255.124 22.6009C256.751 25.293 259.491 26.639 263.345 26.639C265.747 26.639 267.606 25.9612 268.923 24.6055C269.233 24.2956 269.514 23.9373 269.765 23.5306C270.037 23.1239 270.25 22.7365 270.405 22.3685C270.559 21.9812 270.685 21.5842 270.782 21.1774C270.898 20.7707 270.986 20.4221 271.044 20.1316C271.102 19.8217 271.14 19.5215 271.16 19.231C271.179 18.9405 271.189 18.7468 271.189 18.65C271.208 18.5338 271.218 18.4466 271.218 18.3885V18.3014V18.2142C271.218 18.1755 271.218 18.1174 271.218 18.0399C271.218 17.9625 271.218 17.8172 271.218 17.6042C271.218 17.3911 271.208 17.1684 271.189 16.936C271.189 16.7036 271.17 16.4228 271.131 16.0935C271.092 15.7643 271.034 15.435 270.957 15.1058C270.898 14.7765 270.811 14.4279 270.695 14.06C270.579 13.6726 270.443 13.3143 270.288 12.9851C270.133 12.6365 269.94 12.2878 269.707 11.9392C269.494 11.5713 269.252 11.2323 268.981 10.9225C267.528 9.31497 265.379 8.49185 262.532 8.45312C259.743 8.39502 257.622 9.14066 256.17 10.69C255.666 11.213 255.24 11.8327 254.891 12.5493C254.543 13.2659 254.301 13.9341 254.165 14.5538C254.029 15.1736 253.913 15.7836 253.816 16.384C253.739 16.9651 253.72 17.4008 253.758 17.6913C253.797 17.9818 253.797 18.1658 253.758 18.2433V18.3014ZM263.345 30.0961C261.796 30.0961 260.372 29.9218 259.075 29.5732C257.796 29.2246 256.712 28.7501 255.821 28.1497C254.93 27.5493 254.184 26.9392 253.584 26.3195C253.003 25.6803 252.499 24.9831 252.073 24.2278C251.609 23.4144 251.231 22.5332 250.94 21.5842C250.65 20.6352 250.476 19.9573 250.417 19.5506C250.359 19.1245 250.321 18.7565 250.301 18.4466C250.301 18.2723 250.301 18.0496 250.301 17.7785C250.301 17.5073 250.311 17.0716 250.33 16.4712C250.369 15.8708 250.456 15.251 250.592 14.6119C250.727 13.9728 250.902 13.2949 251.115 12.5784C251.347 11.8424 251.676 11.1064 252.102 10.3705C252.548 9.61516 253.061 8.92762 253.642 8.30786C255.792 6.02252 258.774 4.9089 262.59 4.967C266.444 5.02511 269.436 6.24525 271.567 8.62743C272.109 9.20845 272.574 9.85725 272.961 10.5738C273.368 11.2711 273.678 11.9683 273.891 12.6655C274.104 13.3434 274.268 13.9922 274.385 14.6119C274.52 15.2123 274.598 15.803 274.617 16.384C274.656 16.9457 274.675 17.3718 274.675 17.6623C274.694 17.9334 274.694 18.1852 274.675 18.4176C274.675 18.7662 274.646 19.1923 274.588 19.6958C274.53 20.18 274.414 20.8676 274.239 21.7585C274.065 22.63 273.736 23.5403 273.252 24.4893C272.767 25.4189 272.157 26.2614 271.421 27.0167C269.426 29.0696 266.734 30.0961 263.345 30.0961Z" fill="white"/>
<path d="M243.106 30.0964H239.649V5.1416H243.106V30.0964Z" fill="white"/>
<path d="M232.743 5.08105V8.53812H222.343V30.0939H218.886V8.53812H208.544V5.08105H232.743Z" fill="white"/>
<path d="M199.298 26.6947C197.148 28.9607 194.02 30.0937 189.914 30.0937C185.828 30.0937 182.71 28.9607 180.56 26.6947C180.134 26.2299 179.746 25.736 179.398 25.2131C179.069 24.6902 178.807 24.177 178.613 23.6734C178.439 23.1699 178.294 22.7051 178.178 22.279C178.062 21.8335 177.974 21.4074 177.916 21.0007C177.878 20.594 177.848 20.2938 177.829 20.1002C177.829 19.8871 177.839 19.7031 177.858 19.5482V5.05176H181.635V19.6353V19.6934C181.635 19.7322 181.635 19.7806 181.635 19.8387C181.635 19.8968 181.644 20.0324 181.664 20.2454C181.683 20.4391 181.712 20.6424 181.751 20.8555C181.79 21.0492 181.848 21.2912 181.925 21.5818C182.003 21.8723 182.1 22.1531 182.216 22.4242C182.332 22.6954 182.487 22.9859 182.681 23.2958C182.874 23.5863 183.097 23.8574 183.349 24.1092C184.743 25.5617 186.932 26.288 189.914 26.288C192.916 26.288 195.114 25.5617 196.509 24.1092C196.857 23.7606 197.148 23.3732 197.38 22.9472C197.613 22.5017 197.777 22.1047 197.874 21.7561C197.99 21.4074 198.078 21.0588 198.136 20.7102C198.194 20.3422 198.223 20.1002 198.223 19.984C198.223 19.8484 198.223 19.7419 198.223 19.6644V19.6063V19.5772V5.05176H202.029V19.5482C202.029 19.8193 202.009 20.1486 201.97 20.5359C201.932 20.9233 201.845 21.4752 201.709 22.1918C201.573 22.9084 201.293 23.6734 200.867 24.4869C200.46 25.2809 199.937 26.0169 199.298 26.6947Z" fill="white"/>
<path d="M171.584 30.0976L148.198 29.9233V4.93945H152.003V26.1467L171.613 26.2919L171.584 30.0976Z" fill="white"/>
<path d="M139.139 30.0964H135.682V5.1416H139.139V30.0964Z" fill="white"/>
<path d="M116.441 30.0937C116.422 30.0937 116.393 30.0937 116.354 30.0937C116.315 30.0937 116.286 30.0937 116.267 30.0937H116.093C114.717 30.0937 113.459 30.0065 112.316 29.8322C111.173 29.6386 110.205 29.3965 109.411 29.106C108.636 28.8154 107.939 28.4571 107.319 28.0311C106.719 27.605 106.235 27.1789 105.867 26.7528C105.518 26.3074 105.227 25.8329 104.995 25.3293C104.782 24.8258 104.627 24.361 104.53 23.9349C104.453 23.5088 104.404 23.073 104.385 22.6276L108.191 22.5114C108.21 23.2667 108.452 23.9058 108.917 24.4287C109.401 24.9517 110.05 25.339 110.863 25.5908C111.677 25.8426 112.5 26.0266 113.333 26.1428C114.185 26.2396 115.105 26.288 116.093 26.288H116.267C119.346 26.3074 121.486 26.1234 122.687 25.736C123.559 25.4649 124.149 25.1163 124.459 24.6902C124.769 24.2641 124.924 23.7218 124.924 23.0634C124.924 22.6373 124.885 22.279 124.808 21.9885C124.73 21.6786 124.517 21.359 124.169 21.0298C123.839 20.7005 123.375 20.4294 122.774 20.2164C122.174 20.0033 121.322 19.829 120.218 19.6934C119.114 19.5385 117.777 19.4514 116.209 19.432C115.395 19.4126 114.63 19.3836 113.914 19.3448C113.216 19.2867 112.442 19.1996 111.59 19.0834C110.757 18.9478 110.002 18.7832 109.324 18.5895C108.665 18.3958 108.007 18.1344 107.348 17.8051C106.69 17.4565 106.138 17.0595 105.692 16.614C105.266 16.1686 104.918 15.6166 104.646 14.9581C104.375 14.2996 104.24 13.5734 104.24 12.7793C104.24 10.2035 105.237 8.26673 107.232 6.96912C109.207 5.69088 112.316 5.05176 116.557 5.05176C120.973 5.05176 124.256 6.14601 126.406 8.33452C126.929 8.89617 127.364 9.49656 127.713 10.1357C128.081 10.7554 128.323 11.3364 128.439 11.8787C128.575 12.421 128.652 12.8277 128.672 13.0989C128.71 13.37 128.73 13.5927 128.73 13.767L124.953 13.6799L124.924 13.7089C124.924 13.5927 124.914 13.4572 124.895 13.3022C124.876 13.1279 124.808 12.8762 124.692 12.5469C124.575 12.1983 124.411 11.8787 124.198 11.5882C123.985 11.2783 123.665 10.9491 123.239 10.6005C122.832 10.2519 122.338 9.95169 121.757 9.69991C121.196 9.44814 120.46 9.24478 119.55 9.08984C118.659 8.91554 117.661 8.82838 116.557 8.82838C115.395 8.82838 114.349 8.88648 113.42 9.00269C112.49 9.09953 111.725 9.22541 111.125 9.38035C110.544 9.51592 110.04 9.7096 109.614 9.96137C109.207 10.2131 108.898 10.4456 108.685 10.6586C108.491 10.8523 108.336 11.104 108.22 11.4139C108.123 11.7238 108.065 11.9659 108.045 12.1402C108.045 12.2951 108.045 12.5082 108.045 12.7793C108.045 13.1086 108.084 13.3797 108.162 13.5927C108.258 13.8058 108.452 14.0091 108.743 14.2028C110.002 15.0937 112.51 15.5682 116.267 15.6263C116.906 15.6457 117.41 15.665 117.777 15.6844C118.145 15.6844 118.707 15.7135 119.462 15.7716C120.218 15.8297 120.838 15.9071 121.322 16.004C121.806 16.0814 122.397 16.2073 123.094 16.3816C123.81 16.5559 124.401 16.769 124.866 17.0208C125.35 17.2532 125.854 17.563 126.377 17.9504C126.899 18.3184 127.316 18.7444 127.626 19.2286C127.955 19.6934 128.216 20.2551 128.41 20.9136C128.623 21.5527 128.73 22.2693 128.73 23.0634C128.73 23.6637 128.662 24.2448 128.526 24.8064C128.391 25.3681 128.149 25.9491 127.8 26.5495C127.471 27.1305 126.967 27.6728 126.289 28.1763C125.612 28.6799 124.788 29.0769 123.82 29.3674C123.104 29.5805 122.28 29.7451 121.351 29.8613C120.421 29.9775 119.627 30.0453 118.969 30.0646C118.329 30.084 117.487 30.0937 116.441 30.0937Z" fill="white"/>
<path d="M79.7378 8.74513V16.3565H94.4957V20.1331H79.7378V26.2919H97.6041V30.0976H75.9321V4.93945H97.6041V8.74513H79.7378Z" fill="white"/>
<path d="M63.2799 17.9821C64.5 17.2655 65.1101 15.9873 65.1101 14.1474C65.1101 12.0364 64.4032 10.5451 62.9894 9.67354C62.3309 9.26683 61.6433 9.02474 60.9267 8.94727L48.3477 8.91822V18.5922H61.1301C61.866 18.5728 62.5826 18.3695 63.2799 17.9821ZM64.9067 21.323C65.8557 22.1364 66.6401 23.1241 67.2598 24.2862C67.899 25.4288 68.325 26.4747 68.5381 27.4237C68.7705 28.3727 68.8867 29.2636 68.8867 30.0964H65.1101C65.1101 30.0189 65.1004 29.9124 65.081 29.7768C65.0617 29.6412 65.0326 29.4088 64.9939 29.0796C64.9551 28.7503 64.8873 28.4211 64.7905 28.0919C64.6937 27.7432 64.5678 27.3559 64.4128 26.9298C64.2579 26.5037 64.0449 26.097 63.7737 25.7097C63.5026 25.303 63.1927 24.9156 62.8441 24.5476C62.4955 24.1797 62.0597 23.8504 61.5368 23.5599C61.0139 23.25 60.4522 23.0079 59.8518 22.8336C58.9416 22.6012 55.2908 22.4172 48.8996 22.2817H48.3477V30.0964H44.542V5.02539L61.101 5.08349C62.418 5.14159 63.7156 5.56768 64.9939 6.36173C67.5891 7.96922 68.8867 10.5354 68.8867 14.0602C68.8867 15.7065 68.5478 17.1493 67.8699 18.3888C67.2114 19.6283 66.2431 20.587 64.9648 21.2649C64.9454 21.2842 64.9261 21.3036 64.9067 21.323Z" fill="white"/>
<path d="M0.0224609 2.05957H6.26583V29.6H0.0224609V2.05957Z" fill="#C8FF80"/>
<path fill-rule="evenodd" clip-rule="evenodd" d="M18.1366 8.09493C20.3177 8.09493 22.0858 9.86308 22.0858 12.0442L22.0858 17.4313H28.1808V12.0442C28.1808 6.49694 23.6838 2 18.1366 2L3.4897 2C0.45419 2 -1.12847 5.6128 0.929572 7.84413L20.9964 29.6005H29.288L9.4525 8.09493L18.1366 8.09493Z" fill="#C8FF80"/>
<path d="M33.7144 3.17442H33.2331V0.896481L32.4835 2.62698H31.8736L31.1278 0.830347V3.17442H30.6465V0H31.3005L32.1823 2.11996L33.1008 0H33.7144V3.17442Z" fill="white"/>
<path d="M30.2441 0.0107422V0.44796H28.9288V3.17414H28.4916V0.44796H27.1836V0.0107422H30.2441Z" fill="white"/>
</svg>
