<svg width="451" height="417" viewBox="0 0 451 417" fill="none" xmlns="http://www.w3.org/2000/svg">
<path d="M277.804 1V0V0V1ZM431.102 236.517V237.517H432.102V236.517H431.102ZM338.079 236.517H337.079V237.517H338.079V236.517ZM338.079 154.298H339.079V154.298H338.079ZM145.266 94.0225V93.0225H142.983L144.531 94.7004L145.266 94.0225ZM448 422.247V423.247H450.283L448.735 421.569L448 422.247ZM321.451 422.247L320.716 422.925L321.013 423.247H321.451V422.247ZM96.5645 178.425L97.2995 177.747L95.5645 175.866V178.425H96.5645ZM96.5645 422.246V423.246H97.5645V422.246H96.5645ZM1.27637 422.246H0.276367V423.246H1.27637V422.246ZM1.27637 59.8633H2.27637V59.8117L2.27107 59.7604L1.27637 59.8633ZM1.27637 49.0957L2.27117 49.1975L2.27637 49.1467V49.0957H1.27637ZM1.27637 1.91602V0.916016H0.276367V1.91602H1.27637ZM44.1396 1.91602V2.91602H44.2313L44.3214 2.89936L44.1396 1.91602ZM54.2598 1V2V2V1ZM277.804 1V2C361.915 2.00001 430.102 70.1863 430.102 154.298H431.102H432.102C432.102 69.0817 363.02 6.3777e-06 277.804 0V1ZM431.102 154.298H430.102V236.517H431.102H432.102V154.298H431.102ZM431.102 236.517V235.517H338.079V236.517V237.517H431.102V236.517ZM338.079 236.517H339.079V154.298H338.079H337.079V236.517H338.079ZM338.079 154.298H339.079C339.079 120.457 311.645 93.0225 277.804 93.0225V94.0225V95.0225C310.54 95.0225 337.079 121.561 337.079 154.298H338.079ZM277.804 94.0225V93.0225H145.266V94.0225V95.0225H277.804V94.0225ZM145.266 94.0225L144.531 94.7004L447.265 422.925L448 422.247L448.735 421.569L146.001 93.3445L145.266 94.0225ZM448 422.247V421.247H321.451V422.247V423.247H448V422.247ZM321.451 422.247L322.186 421.569L97.2995 177.747L96.5645 178.425L95.8294 179.103L320.716 422.925L321.451 422.247ZM96.5645 178.425H95.5645V422.246H96.5645H97.5645V178.425H96.5645ZM96.5645 422.246V421.246H1.27637V422.246V423.246H96.5645V422.246ZM1.27637 422.246H2.27637V59.8633H1.27637H0.276367V422.246H1.27637ZM1.27637 59.8633L2.27107 59.7604C1.90585 56.2279 1.91384 52.6888 2.27117 49.1975L1.27637 49.0957L0.281564 48.9939C-0.0894003 52.6183 -0.0979085 56.2946 0.281669 59.9661L1.27637 59.8633ZM1.27637 49.0957H2.27637V1.91602H1.27637H0.276367V49.0957H1.27637ZM1.27637 1.91602V2.91602H44.1396V1.91602V0.916016H1.27637V1.91602ZM44.1396 1.91602L44.3214 2.89936C47.498 2.31226 50.8153 2 54.2598 2V1V0C50.694 -3.57628e-07 47.255 0.323297 43.9579 0.93267L44.1396 1.91602ZM54.2598 1V2H277.804V1V0H54.2598V1Z" fill="white"/>
</svg>
