<svg width="48" height="35" viewBox="0 0 48 35" fill="none" xmlns="http://www.w3.org/2000/svg">
<path d="M39.2459 25.9575C41.7078 27.3056 43.1141 29.7075 42.9378 32.1094C42.8197 33.5738 42.7616 33.6338 40.8866 33.8681C39.7147 34.0444 32.3309 34.1025 24.7147 34.1025C16.1009 34.1025 7.07843 33.9263 6.43343 33.75C3.8553 33.105 5.26155 28.4175 8.66093 26.1919C11.2972 24.4931 16.6878 21.915 18.1541 21.6206C20.1472 21.21 20.3816 19.98 18.1541 15.9956C17.6272 15.1163 17.0403 12.4219 16.9822 9.60938C16.9241 5.03813 17.8034 1.93312 21.7878 0.410625C22.6091 0.118125 23.4284 0 24.1897 0C26.8259 0 29.2878 1.46437 30.2834 3.63375C31.7478 6.50437 31.1628 14.1806 29.6384 16.935C27.8797 20.04 28.0559 21.0375 29.9909 21.5644C31.2809 21.9169 35.2653 23.7919 39.2497 25.9594L39.2459 25.9575ZM7.37093 24.2006C6.43343 24.8456 5.55406 25.665 4.85093 26.4862C2.62343 26.4862 0.92468 26.4281 0.74843 26.3681C-0.715945 26.0156 0.10343 23.3213 2.03843 22.1494C3.50281 21.2119 6.49156 19.7475 7.31281 19.5713C8.36843 19.3369 8.60281 18.6919 7.31281 16.4662C7.02031 15.9975 6.6678 14.4731 6.6678 12.8925C6.60968 10.3144 7.13655 8.55562 9.36405 7.79437C11.2391 7.09125 13.3484 7.97063 14.1097 9.55313C14.8709 11.1938 14.4622 15.4125 13.6409 16.9369C12.7034 18.7538 12.8797 19.2225 13.9334 19.515C14.1678 19.5731 14.6366 19.8075 15.2816 20.1019C12.7034 21.1575 9.18781 23.0906 7.37093 24.2044V24.2006ZM45.9266 21.9731C47.3328 22.7344 48.0941 24.0244 47.9778 25.3725C47.9197 26.1938 47.9197 26.2519 46.8641 26.3681C46.5716 26.4263 45.2234 26.4862 43.4647 26.4862C42.7034 25.4906 41.6478 24.5531 40.3597 23.9081C37.9578 22.5019 35.0272 20.9775 32.8597 20.04C33.4466 19.8056 33.9734 19.6294 34.2078 19.5713C35.3216 19.3369 35.4978 18.6919 34.2078 16.4662C33.9734 15.9975 33.5628 14.4731 33.5628 12.8925C33.5047 10.3144 33.9734 8.55562 36.1991 7.79437C38.1322 7.09125 40.2416 7.97063 40.9447 9.55313C41.7059 11.1938 41.4134 15.4125 40.5922 16.9369C39.6547 18.7538 39.7709 19.2225 40.7684 19.515C41.4716 19.7494 43.6991 20.805 45.9247 21.9769L45.9266 21.9731Z" fill="#C8FF80"/>
</svg>
