<svg width="28" height="26" viewBox="0 0 28 26" fill="none" xmlns="http://www.w3.org/2000/svg">
<path d="M26.3513 6.93913C26.5844 6.93913 26.8076 6.84662 26.9724 6.68187C27.1371 6.51712 27.2296 6.29384 27.2296 6.06076V3.51354C27.2296 2.58153 26.8596 1.68785 26.2006 1.02908C25.5419 0.370057 24.6481 0 23.7161 0H3.51357C2.58156 0 1.68788 0.370049 1.02911 1.02908C0.370087 1.68778 2.93829e-05 2.58153 2.93829e-05 3.51354V17.5677C-0.0035665 18.4471 0.323005 19.296 0.914712 19.9465C1.50672 20.5971 2.32138 21.0017 3.19707 21.0809L7.53633 25.4727C7.86487 25.8081 8.31435 25.998 8.78375 26C9.01258 25.9987 9.23912 25.9539 9.45128 25.8683C9.77752 25.7339 10.056 25.5047 10.2502 25.2102C10.4447 24.9157 10.5457 24.5695 10.5405 24.2168V21.0808H23.716C24.648 21.0808 25.5416 20.7108 26.2004 20.0518C26.8594 19.3931 27.2295 18.4993 27.2295 17.5676V10.5406C27.2295 10.0555 26.8362 9.66228 26.3511 9.66228C25.866 9.66228 25.4728 10.0555 25.4728 10.5406V17.5676C25.4728 18.0335 25.2878 18.4803 24.9582 18.8095C24.6291 19.139 24.1822 19.3241 23.716 19.3241H9.66269C9.17757 19.3241 8.78433 19.7173 8.78433 20.2024V24.2167L4.20807 19.5879C4.0165 19.4179 3.7697 19.3241 3.51406 19.3241C3.04823 19.3241 2.60139 19.1391 2.27183 18.8096C1.94232 18.4804 1.7573 18.0335 1.7573 17.5677V3.51354C1.7573 3.04771 1.94232 2.60086 2.27183 2.27131C2.60135 1.94176 3.04821 1.75678 3.51406 1.75678H23.7166C24.1827 1.75678 24.6296 1.9418 24.9588 2.27131C25.2883 2.60082 25.4734 3.04768 25.4734 3.51354V6.06076C25.4734 6.29384 25.5659 6.51711 25.7306 6.68187C25.8954 6.84663 26.119 6.93913 26.3517 6.93913H26.3513Z" fill="black"/>
<path d="M14.9325 14.9327H20.2027H20.2024C20.6686 14.9327 21.1154 14.7474 21.4447 14.4182C21.7742 14.0887 21.9592 13.6418 21.9592 13.176H22.8375C23.0706 13.176 23.2942 13.0834 23.4587 12.9187C23.6234 12.7539 23.7159 12.5303 23.7159 12.2976V10.5409C23.7159 10.3078 23.6234 10.0845 23.4587 9.91975C23.2942 9.75499 23.0706 9.66248 22.8375 9.66248H21.9592C21.9592 9.19633 21.7742 8.74981 21.4447 8.42025C21.1155 8.09074 20.6686 7.90572 20.2024 7.90572H14.9325V5.91166C15.4755 5.59816 15.8102 5.01924 15.8109 4.39226C15.8151 3.97809 15.6732 3.57568 15.4101 3.25598C15.1469 2.93628 14.7792 2.7202 14.3719 2.64501C13.9646 2.57015 13.5438 2.64174 13.1843 2.84671C12.8244 3.05167 12.5488 3.37726 12.4056 3.76591C12.2624 4.15456 12.2615 4.58119 12.4024 4.97056C12.5432 5.35989 12.8172 5.68712 13.1758 5.89437V7.90575H7.02716C6.561 7.90575 6.11448 8.09077 5.78493 8.42029C5.45538 8.7498 5.2704 9.19633 5.2704 9.66251H4.39203C3.90692 9.66251 3.51367 10.0558 3.51367 10.5409V12.2976C3.51367 12.5304 3.60619 12.754 3.77094 12.9187C3.93569 13.0835 4.15896 13.176 4.39204 13.176H5.27041C5.27041 13.6418 5.45543 14.0887 5.78494 14.4182C6.11445 14.7474 6.56099 14.9327 7.02717 14.9327H12.2974L11.4191 14.0544V13.176H15.8109V14.0544L14.9325 14.9327ZM9.66221 12.2976C9.30688 12.2976 8.98652 12.0835 8.85053 11.7553C8.71454 11.4271 8.78973 11.0492 9.04111 10.7981C9.29217 10.5467 9.67006 10.4715 9.99831 10.6075C10.3266 10.7435 10.5406 11.0639 10.5406 11.4192C10.5406 11.652 10.4481 11.8756 10.2834 12.0403C10.1186 12.2051 9.89497 12.2976 9.66221 12.2976ZM17.5676 10.5409C17.9226 10.5409 18.2429 10.7547 18.3789 11.0829C18.5149 11.4111 18.4397 11.789 18.1887 12.0403C17.9373 12.2914 17.5594 12.3666 17.2312 12.2306C16.903 12.0946 16.6892 11.7742 16.6892 11.4192C16.6892 10.9341 17.0825 10.5409 17.5676 10.5409Z" fill="black"/>
</svg>
