<svg width="19" height="18" viewBox="0 0 19 18" fill="none" xmlns="http://www.w3.org/2000/svg">
<path d="M17.7442 11.5116V6.48837C17.7442 4.45728 17.334 3.19898 16.5675 2.43249C15.801 1.66599 14.5427 1.25581 12.5116 1.25581H7.48837C5.45728 1.25581 4.19898 1.66599 3.43249 2.43249C2.66599 3.19898 2.25581 4.45728 2.25581 6.48837V7.3089C2.25578 7.65566 1.97467 7.93681 1.62791 7.93681C1.28115 7.93681 1.00004 7.65566 1 7.3089V6.48837C1 4.33342 1.42703 2.66149 2.54426 1.54426C3.66149 0.427029 5.33342 0 7.48837 0H12.5116C14.6666 0 16.3385 0.427029 17.4557 1.54426C18.573 2.66149 19 4.33342 19 6.48837V11.5116C19 13.6666 18.573 15.3385 17.4557 16.4557C16.3385 17.573 14.6666 18 12.5116 18H11.6744C11.3276 18 11.0465 17.7189 11.0465 17.3721C11.0465 17.0253 11.3276 16.7442 11.6744 16.7442H12.5116C14.5427 16.7442 15.801 16.334 16.5675 15.5675C17.334 14.801 17.7442 13.5427 17.7442 11.5116Z" fill="#C8FF80"/>
<path d="M14.3089 3C14.5882 3.00006 14.8401 3.16799 14.9472 3.42561C15.0543 3.68329 14.9955 3.98013 14.7982 4.17762L10.1805 8.79754C9.91079 9.06725 9.47319 9.06748 9.203 8.79825C8.93278 8.52899 8.93225 8.0921 9.20192 7.82229L12.6423 4.38037H10.6129C10.2311 4.38037 9.92161 4.07136 9.92161 3.69018C9.92161 3.30901 10.2311 3 10.6129 3H14.3089Z" fill="#C8FF80"/>
<path d="M13 7.31944V3.68056C13 3.3047 13.4477 3 14 3C14.5523 3 15 3.3047 15 3.68056V7.31944C14.9999 7.69524 14.5522 8 14 8C13.4478 8 13.0001 7.69524 13 7.31944Z" fill="#C8FF80"/>
<path d="M7.71429 12.3429C7.71429 11.442 7.53005 10.9787 7.27567 10.7243C7.03717 10.4858 6.61509 10.3089 5.82087 10.2877L5.65714 10.2857H3.34286C2.44198 10.2857 1.97871 10.4699 1.72433 10.7243C1.46995 10.9787 1.28571 11.442 1.28571 12.3429V14.6571C1.28571 15.558 1.46995 16.0213 1.72433 16.2757C1.97871 16.5301 2.44198 16.7143 3.34286 16.7143H5.65714C6.55802 16.7143 7.02129 16.5301 7.27567 16.2757C7.53005 16.0213 7.71429 15.558 7.71429 14.6571V12.3429ZM9 14.6571C9 15.6848 8.79852 16.5716 8.18505 17.185C7.57157 17.7985 6.68483 18 5.65714 18H3.34286C2.31517 18 1.42843 17.7985 0.814955 17.185C0.201482 16.5716 0 15.6848 0 14.6571V12.3429C0 11.3152 0.201482 10.4284 0.814955 9.81496C1.42843 9.20148 2.31517 9 3.34286 9H5.65714L5.84799 9.00234C6.7945 9.02672 7.60988 9.23979 8.18505 9.81496C8.79852 10.4284 9 11.3152 9 12.3429V14.6571Z" fill="#C8FF80"/>
</svg>