<svg width="44" height="46" viewBox="0 0 44 46" fill="none" xmlns="http://www.w3.org/2000/svg">
<path d="M37.4901 16.8576C36.2252 16.8774 34.9954 17.2764 33.9599 18.0031C32.9244 18.7297 32.131 19.7506 31.6822 20.9333H23.0214C22.7232 19.728 22.2051 18.5881 21.493 17.5709L25.0593 13.3933C25.783 13.6361 26.538 13.7734 27.3009 13.8009C28.51 13.8009 29.692 13.4423 30.6974 12.7706C31.7027 12.0988 32.4863 11.144 32.9491 10.0269C33.4118 8.90979 33.5328 7.68056 33.2969 6.49465C33.0611 5.30874 32.4788 4.21942 31.6238 3.36443C30.7688 2.50944 29.6795 1.92718 28.4936 1.69129C27.3077 1.45539 26.0784 1.57646 24.9613 2.03918C23.8442 2.5019 22.8894 3.28549 22.2177 4.29085C21.5459 5.29621 21.1874 6.4782 21.1874 7.68734C21.1909 8.75951 21.4717 9.81255 22.0025 10.7441L18.3344 14.9217C17.029 14.1839 15.5544 13.7977 14.0549 13.8009L12.3228 14.0047L11.1001 11.1517C12.1439 10.1839 12.8173 8.88229 13.0042 7.4712C13.1911 6.06011 12.8798 4.62804 12.1239 3.42192C11.368 2.2158 10.2149 1.31124 8.86353 0.864224C7.51213 0.417211 6.04711 0.455764 4.72109 0.973234C3.39507 1.4907 2.29118 2.45466 1.59977 3.69886C0.908358 4.94307 0.67277 6.38954 0.933629 7.78884C1.19449 9.18815 1.93544 10.4526 3.02872 11.3641C4.122 12.2756 5.49907 12.777 6.92248 12.7819H7.33004L8.65464 15.6349C7.49697 16.4761 6.5548 17.5793 5.90516 18.8544C5.25553 20.1294 4.91687 21.5401 4.91687 22.9712C4.91687 24.4022 5.25553 25.8129 5.90516 27.0879C6.5548 28.363 7.49697 29.4662 8.65464 30.3074L7.33004 33.1604H6.92248C5.49907 33.1653 4.122 33.6667 3.02872 34.5782C1.93544 35.4897 1.19449 36.7542 0.933629 38.1535C0.67277 39.5528 0.908358 40.9992 1.59977 42.2435C2.29118 43.4877 3.39507 44.4516 4.72109 44.9691C6.04711 45.4865 7.51213 45.5251 8.86353 45.0781C10.2149 44.6311 11.368 43.7265 12.1239 42.5204C12.8798 41.3143 13.1911 39.8822 13.0042 38.4711C12.8173 37.06 12.1439 35.7584 11.1001 34.7906L12.3228 31.9377L14.0549 32.1414C15.5544 32.1446 17.029 31.7584 18.3344 31.0206L22.0025 35.1982C21.4717 36.1298 21.1909 37.1828 21.1874 38.255C21.1874 39.4641 21.5459 40.6461 22.2177 41.6515C22.8894 42.6568 23.8442 43.4404 24.9613 43.9031C26.0784 44.3658 27.3077 44.4869 28.4936 44.251C29.6795 44.0151 30.7688 43.4329 31.6238 42.5779C32.4788 41.7229 33.0611 40.6336 33.2969 39.4477C33.5328 38.2618 33.4118 37.0325 32.9491 35.9154C32.4863 34.7983 31.7027 33.8435 30.6974 33.1718C29.692 32.5 28.51 32.1414 27.3009 32.1414C26.538 32.1689 25.783 32.3062 25.0593 32.549L21.493 28.3714C22.2051 27.3542 22.7232 26.2143 23.0214 25.009H31.6822C32.131 26.1918 32.9244 27.2126 33.9599 27.9392C34.9954 28.6659 36.2252 29.0649 37.4901 29.0847C39.1115 29.0847 40.6665 28.4406 41.813 27.2941C42.9595 26.1476 43.6036 24.5926 43.6036 22.9712C43.6036 21.3497 42.9595 19.7947 41.813 18.6482C40.6665 17.5017 39.1115 16.8576 37.4901 16.8576ZM4.88463 6.66842C4.88463 6.26537 5.00415 5.87138 5.22807 5.53626C5.45199 5.20114 5.77026 4.93994 6.14263 4.7857C6.51499 4.63146 6.92474 4.5911 7.32004 4.66974C7.71534 4.74837 8.07845 4.94245 8.36345 5.22745C8.64844 5.51245 8.84253 5.87556 8.92116 6.27086C8.99979 6.66616 8.95944 7.0759 8.8052 7.44827C8.65096 7.82064 8.38976 8.1389 8.05464 8.36282C7.71952 8.58675 7.32552 8.70626 6.92248 8.70626C6.38201 8.70626 5.86367 8.49156 5.4815 8.10939C5.09934 7.72722 4.88463 7.20889 4.88463 6.66842ZM6.92248 41.3117C6.51943 41.3117 6.12543 41.1922 5.79031 40.9683C5.45519 40.7444 5.19399 40.4261 5.03976 40.0537C4.88552 39.6814 4.84516 39.2716 4.92379 38.8763C5.00242 38.481 5.19651 38.1179 5.4815 37.8329C5.7665 37.5479 6.12961 37.3538 6.52491 37.2752C6.92022 37.1966 7.32996 37.2369 7.70232 37.3912C8.07469 37.5454 8.39296 37.8066 8.61688 38.1417C8.8408 38.4768 8.96032 38.8708 8.96032 39.2739C8.96032 39.8144 8.74562 40.3327 8.36345 40.7149C7.98128 41.097 7.46294 41.3117 6.92248 41.3117ZM27.3009 5.6495C27.7039 5.6495 28.0979 5.76902 28.4331 5.99294C28.7682 6.21686 29.0294 6.53513 29.1836 6.90749C29.3379 7.27986 29.3782 7.6896 29.2996 8.08491C29.2209 8.48021 29.0269 8.84332 28.7419 9.12831C28.4569 9.41331 28.0938 9.6074 27.6985 9.68603C27.3032 9.76466 26.8934 9.7243 26.521 9.57006C26.1487 9.41582 25.8304 9.15463 25.6065 8.81951C25.3826 8.48438 25.2631 8.09039 25.2631 7.68734C25.2631 7.14687 25.4778 6.62854 25.8599 6.24637C26.2421 5.8642 26.7604 5.6495 27.3009 5.6495ZM8.96032 22.9712C8.96032 21.9635 9.25911 20.9785 9.81891 20.1407C10.3787 19.3029 11.1744 18.65 12.1053 18.2644C13.0362 17.8788 14.0606 17.7779 15.0488 17.9744C16.0371 18.171 16.9449 18.6562 17.6574 19.3687C18.3698 20.0812 18.8551 20.989 19.0516 21.9772C19.2482 22.9655 19.1473 23.9899 18.7617 24.9208C18.3761 25.8517 17.7231 26.6474 16.8853 27.2072C16.0475 27.767 15.0625 28.0658 14.0549 28.0658C12.7037 28.0658 11.4079 27.529 10.4525 26.5736C9.49707 25.6182 8.96032 24.3223 8.96032 22.9712ZM29.3387 38.255C29.3387 38.658 29.2192 39.052 28.9953 39.3871C28.7714 39.7223 28.4531 39.9835 28.0807 40.1377C27.7084 40.2919 27.2986 40.3323 26.9033 40.2537C26.508 40.175 26.1449 39.9809 25.8599 39.6959C25.5749 39.4109 25.3808 39.0478 25.3022 38.6525C25.2236 38.2572 25.2639 37.8475 25.4182 37.4751C25.5724 37.1028 25.8336 36.7845 26.1687 36.5606C26.5038 36.3366 26.8978 36.2171 27.3009 36.2171C27.8414 36.2171 28.3597 36.4318 28.7419 36.814C29.124 37.1962 29.3387 37.7145 29.3387 38.255ZM37.4901 25.009C37.0871 25.009 36.6931 24.8895 36.3579 24.6656C36.0228 24.4416 35.7616 24.1234 35.6074 23.751C35.4531 23.3786 35.4128 22.9689 35.4914 22.5736C35.57 22.1783 35.7641 21.8152 36.0491 21.5302C36.3341 21.2452 36.6972 21.0511 37.0925 20.9725C37.4878 20.8938 37.8976 20.9342 38.2699 21.0884C38.6423 21.2427 38.9606 21.5039 39.1845 21.839C39.4084 22.1741 39.5279 22.5681 39.5279 22.9712C39.5279 23.5116 39.3132 24.03 38.9311 24.4121C38.5489 24.7943 38.0306 25.009 37.4901 25.009Z" fill="black"/>
</svg>
