<svg width="290" height="29" viewBox="0 0 290 29" fill="none" xmlns="http://www.w3.org/2000/svg">
<path d="M289.117 28.4169H284.622L270.878 9.68469V28.365H267.475V5.89148H272.281L285.739 24.182V5.89148H289.117V28.4169Z" fill="black"/>
<path d="M243.113 17.8693C243.131 18.0079 243.148 18.2071 243.165 18.4669C243.2 18.7267 243.321 19.1943 243.529 19.8698C243.737 20.5454 244.005 21.1602 244.335 21.7145C245.789 24.1221 248.24 25.3258 251.687 25.3258C253.835 25.3258 255.498 24.7196 256.676 23.5072C256.953 23.23 257.204 22.9096 257.429 22.5459C257.671 22.1821 257.862 21.8357 258.001 21.5066C258.139 21.1602 258.252 20.8052 258.338 20.4414C258.442 20.0777 258.52 19.7659 258.572 19.5061C258.624 19.229 258.659 18.9605 258.676 18.7007C258.693 18.4409 258.702 18.2677 258.702 18.1811C258.719 18.0772 258.728 17.9992 258.728 17.9473V17.8693V17.7914C258.728 17.7567 258.728 17.7048 258.728 17.6355C258.728 17.5662 258.728 17.4363 258.728 17.2458C258.728 17.0552 258.719 16.8561 258.702 16.6482C258.702 16.4404 258.685 16.1892 258.65 15.8948C258.615 15.6003 258.563 15.3059 258.494 15.0114C258.442 14.717 258.364 14.4052 258.26 14.0761C258.156 13.7297 258.035 13.4093 257.897 13.1148C257.758 12.803 257.585 12.4913 257.377 12.1795C257.186 11.8504 256.97 11.5473 256.727 11.2702C255.428 9.83255 253.506 9.09642 250.96 9.06178C248.466 9.00982 246.569 9.67666 245.27 11.0623C244.82 11.53 244.438 12.0842 244.127 12.7251C243.815 13.366 243.598 13.9635 243.477 14.5178C243.356 15.072 243.252 15.6176 243.165 16.1546C243.096 16.6742 243.079 17.0639 243.113 17.3237C243.148 17.5835 243.148 17.7481 243.113 17.8174V17.8693ZM251.687 28.4176C250.302 28.4176 249.028 28.2617 247.868 27.9499C246.725 27.6381 245.755 27.2138 244.958 26.6768C244.161 26.1399 243.495 25.5943 242.958 25.0401C242.438 24.4685 241.988 23.8449 241.607 23.1694C241.191 22.442 240.853 21.6539 240.593 20.8052C240.333 19.9565 240.178 19.3502 240.126 18.9865C240.074 18.6054 240.039 18.2763 240.022 17.9992C240.022 17.8433 240.022 17.6441 240.022 17.4017C240.022 17.1592 240.03 16.7695 240.048 16.2325C240.082 15.6956 240.16 15.1413 240.282 14.5697C240.403 13.9982 240.559 13.3919 240.749 12.7511C240.957 12.0929 241.251 11.4347 241.633 10.7765C242.031 10.101 242.49 9.48614 243.01 8.93188C244.932 6.88805 247.599 5.89211 251.012 5.94407C254.458 5.99603 257.134 7.08723 259.04 9.21767C259.525 9.73729 259.94 10.3175 260.287 10.9584C260.651 11.5819 260.928 12.2055 261.118 12.829C261.309 13.4352 261.456 14.0155 261.56 14.5697C261.681 15.1067 261.75 15.635 261.768 16.1546C261.802 16.6569 261.82 17.0379 261.82 17.2977C261.837 17.5402 261.837 17.7654 261.82 17.9732C261.82 18.285 261.794 18.6661 261.742 19.1164C261.69 19.5494 261.586 20.1643 261.43 20.961C261.274 21.7405 260.98 22.5545 260.547 23.4033C260.114 24.2346 259.568 24.9881 258.91 25.6636C257.126 27.4996 254.718 28.4176 251.687 28.4176Z" fill="black"/>
<path d="M233.586 28.4181H230.494V6.10046H233.586V28.4181Z" fill="black"/>
<path d="M224.32 6.04675V9.13848H215.019V28.4163H211.927V9.13848H202.678V6.04675H224.32Z" fill="black"/>
<path d="M194.409 25.3772C192.487 27.4037 189.689 28.4169 186.017 28.4169C182.363 28.4169 179.574 27.4037 177.651 25.3772C177.27 24.9615 176.924 24.5198 176.612 24.0521C176.318 23.5845 176.084 23.1255 175.911 22.6751C175.755 22.2248 175.625 21.8091 175.521 21.4281C175.417 21.0297 175.339 20.6486 175.287 20.2849C175.253 19.9212 175.227 19.6527 175.209 19.4795C175.209 19.289 175.218 19.1244 175.235 18.9858V6.02136H178.613V19.0638V19.1157C178.613 19.1504 178.613 19.1937 178.613 19.2457C178.613 19.2976 178.621 19.4189 178.639 19.6094C178.656 19.7826 178.682 19.9645 178.717 20.155C178.751 20.3282 178.803 20.5447 178.873 20.8045C178.942 21.0643 179.028 21.3155 179.132 21.558C179.236 21.8004 179.375 22.0603 179.548 22.3374C179.721 22.5972 179.92 22.8397 180.146 23.0648C181.393 24.3639 183.35 25.0134 186.017 25.0134C188.702 25.0134 190.668 24.3639 191.915 23.0648C192.227 22.7531 192.487 22.4067 192.694 22.0256C192.902 21.6272 193.05 21.2722 193.136 20.9604C193.24 20.6486 193.318 20.3369 193.37 20.0251C193.422 19.696 193.448 19.4795 193.448 19.3756C193.448 19.2543 193.448 19.159 193.448 19.0898V19.0378V19.0118V6.02136H196.851V18.9858C196.851 19.2283 196.834 19.5228 196.799 19.8692C196.765 20.2156 196.687 20.7092 196.566 21.3501C196.444 21.991 196.193 22.6751 195.812 23.4026C195.448 24.1127 194.981 24.7709 194.409 25.3772Z" fill="black"/>
<path d="M169.623 28.4164L148.708 28.2605V5.91687H152.112V24.8829L169.649 25.0128L169.623 28.4164Z" fill="black"/>
<path d="M140.609 28.4181H137.517V6.10046H140.609V28.4181Z" fill="black"/>
<path d="M120.311 28.4169C120.293 28.4169 120.267 28.4169 120.233 28.4169C120.198 28.4169 120.172 28.4169 120.155 28.4169H119.999C118.769 28.4169 117.643 28.339 116.621 28.1831C115.6 28.0099 114.733 27.7934 114.023 27.5336C113.331 27.2738 112.707 26.9533 112.153 26.5723C111.616 26.1912 111.183 25.8102 110.854 25.4291C110.542 25.0307 110.282 24.6064 110.074 24.156C109.884 23.7057 109.745 23.29 109.659 22.909C109.589 22.5279 109.546 22.1382 109.529 21.7398L112.932 21.6359C112.949 22.3114 113.166 22.883 113.582 23.3506C114.015 23.8183 114.595 24.1647 115.322 24.3899C116.05 24.615 116.786 24.7796 117.531 24.8835C118.293 24.9701 119.116 25.0134 119.999 25.0134H120.155C122.909 25.0307 124.823 24.8662 125.897 24.5198C126.676 24.2773 127.204 23.9655 127.481 23.5845C127.759 23.2034 127.897 22.7184 127.897 22.1295C127.897 21.7485 127.863 21.4281 127.793 21.1682C127.724 20.8911 127.533 20.6053 127.222 20.3109C126.927 20.0164 126.512 19.7739 125.975 19.5834C125.438 19.3929 124.676 19.237 123.688 19.1157C122.701 18.9772 121.506 18.8992 120.103 18.8819C119.375 18.8646 118.691 18.8386 118.05 18.804C117.427 18.752 116.734 18.6741 115.972 18.5701C115.227 18.4489 114.552 18.3017 113.945 18.1285C113.357 17.9553 112.768 17.7214 112.179 17.427C111.59 17.1152 111.096 16.7601 110.698 16.3618C110.317 15.9634 110.005 15.4698 109.762 14.8809C109.52 14.292 109.399 13.6424 109.399 12.9323C109.399 10.6286 110.291 8.89658 112.075 7.7361C113.841 6.59294 116.621 6.02136 120.415 6.02136C124.364 6.02136 127.3 6.99998 129.222 8.95721C129.69 9.45951 130.08 9.99644 130.391 10.568C130.72 11.1223 130.937 11.6419 131.041 12.1269C131.162 12.6119 131.231 12.9756 131.249 13.2181C131.283 13.4606 131.301 13.6598 131.301 13.8156L127.923 13.7377L127.897 13.7637C127.897 13.6598 127.888 13.5385 127.871 13.3999C127.854 13.2441 127.793 13.0189 127.689 12.7244C127.585 12.4127 127.438 12.1269 127.248 11.8671C127.057 11.5899 126.771 11.2955 126.39 10.9837C126.027 10.6719 125.585 10.4035 125.065 10.1783C124.563 9.95314 123.905 9.77128 123.091 9.63271C122.294 9.47682 121.402 9.39888 120.415 9.39888C119.375 9.39888 118.44 9.45084 117.609 9.55477C116.777 9.64137 116.093 9.75396 115.556 9.89252C115.037 10.0138 114.586 10.187 114.205 10.4121C113.841 10.6373 113.564 10.8452 113.374 11.0357C113.201 11.2089 113.062 11.4341 112.958 11.7112C112.872 11.9883 112.82 12.2048 112.802 12.3607C112.802 12.4993 112.802 12.6898 112.802 12.9323C112.802 13.2267 112.837 13.4692 112.906 13.6598C112.993 13.8503 113.166 14.0321 113.426 14.2054C114.552 15.0021 116.795 15.4265 120.155 15.4784C120.726 15.4957 121.177 15.5131 121.506 15.5304C121.835 15.5304 122.337 15.5564 123.013 15.6083C123.688 15.6603 124.243 15.7296 124.676 15.8162C125.109 15.8855 125.637 15.998 126.26 16.1539C126.901 16.3098 127.43 16.5003 127.845 16.7255C128.278 16.9334 128.729 17.2105 129.196 17.5569C129.664 17.886 130.036 18.267 130.313 18.7001C130.608 19.1157 130.842 19.618 131.015 20.2069C131.205 20.7785 131.301 21.4194 131.301 22.1295C131.301 22.6665 131.24 23.1861 131.119 23.6884C130.998 24.1907 130.781 24.7103 130.469 25.2472C130.175 25.7669 129.724 26.2518 129.118 26.7022C128.512 27.1525 127.776 27.5076 126.91 27.7674C126.269 27.9579 125.533 28.1051 124.702 28.2091C123.87 28.313 123.16 28.3736 122.571 28.3909C121.999 28.4083 121.246 28.4169 120.311 28.4169Z" fill="black"/>
<path d="M87.4821 9.32025V16.1273H100.68V19.5048H87.4821V25.0127H103.46V28.4162H84.0786V5.91675H103.46V9.32025H87.4821Z" fill="black"/>
<path d="M72.7648 17.5833C73.856 16.9425 74.4016 15.7993 74.4016 14.1539C74.4016 12.2659 73.7694 10.9322 72.505 10.1528C71.9161 9.78906 71.3012 9.57256 70.6604 9.50327L59.4106 9.47729V18.1289H70.8422C71.5004 18.1116 72.1413 17.9298 72.7648 17.5833ZM74.2198 20.5711C75.0685 21.2986 75.77 22.182 76.3242 23.2212C76.8958 24.2431 77.2769 25.1784 77.4674 26.0271C77.6752 26.8759 77.7792 27.6726 77.7792 28.4174H74.4016C74.4016 28.3481 74.393 28.2528 74.3757 28.1316C74.3583 28.0104 74.3323 27.8025 74.2977 27.5081C74.2631 27.2136 74.2024 26.9192 74.1158 26.6247C74.0292 26.3129 73.9167 25.9665 73.7781 25.5855C73.6395 25.2044 73.449 24.8407 73.2065 24.4943C72.964 24.1305 72.6869 23.7841 72.3751 23.455C72.0634 23.1259 71.6736 22.8315 71.206 22.5717C70.7383 22.2945 70.236 22.078 69.6991 21.9222C68.885 21.7143 65.6201 21.5498 59.9043 21.4285H59.4106V28.4174H56.0071V5.99585L70.8163 6.04781C71.9941 6.09977 73.1545 6.48083 74.2977 7.19097C76.6187 8.62858 77.7792 10.9236 77.7792 14.0759C77.7792 15.5482 77.476 16.8386 76.8698 17.9471C76.2809 19.0556 75.4149 19.913 74.2717 20.5192C74.2544 20.5365 74.2371 20.5538 74.2198 20.5711Z" fill="black"/>
<path d="M0.98645 3.34351H6.57003V27.9735H0.98645V3.34351Z" fill="black"/>
<path fill-rule="evenodd" clip-rule="evenodd" d="M17.189 8.74075C19.1396 8.74075 20.7209 10.322 20.7209 12.2727L20.7209 17.0904H26.1717V12.2727C26.1717 7.31163 22.15 3.28992 17.189 3.28992L4.08997 3.28992C1.37525 3.28992 -0.040157 6.52093 1.80039 8.51645L19.7466 27.9737H27.162L9.42264 8.74075L17.189 8.74075Z" fill="black"/>
<path d="M39.9666 6.10031H39.1403V2.18949L37.8535 5.16045H36.8064L35.5259 2.07595V6.10031H34.6996V0.650391H35.8224L37.3362 4.28998L38.9132 0.650391H39.9666V6.10031Z" fill="black"/>
<path d="M34.0086 0.668945V1.41957H31.7505V6.09994H30.9998V1.41957H28.7543V0.668945H34.0086Z" fill="black"/>
</svg>
