<svg width="20" height="20" viewBox="0 0 20 20" fill="none" xmlns="http://www.w3.org/2000/svg">
<path d="M12.0342 4.71406C12.2076 5.44922 12.8678 5.99687 13.6561 5.99687C14.5764 5.99687 15.3225 5.25078 15.3225 4.33047C15.3225 3.41016 14.5764 2.66406 13.6561 2.66406C12.8514 2.66406 12.1803 3.23438 12.024 3.99297C10.6764 4.1375 9.62402 5.28047 9.62402 6.66562C9.62402 6.66875 9.62402 6.67109 9.62402 6.67422C8.1584 6.73594 6.82012 7.15312 5.75762 7.81172C5.36309 7.50625 4.86777 7.32422 4.33027 7.32422C3.04043 7.32422 1.99512 8.36953 1.99512 9.65938C1.99512 10.5953 2.54512 11.4016 3.33965 11.7742C3.41699 14.4852 6.3709 16.6656 10.0045 16.6656C13.6381 16.6656 16.5959 14.4828 16.6693 11.7695C17.4576 11.3945 18.0029 10.5906 18.0029 9.66016C18.0029 8.37031 16.9576 7.325 15.6678 7.325C15.1326 7.325 14.6396 7.50547 14.2459 7.80859C13.174 7.14531 11.8209 6.72813 10.3404 6.67266C10.3404 6.67031 10.3404 6.66875 10.3404 6.66641C10.3404 5.67422 11.0779 4.85078 12.0342 4.71563V4.71406ZM5.66387 11.1414C5.70293 10.2945 6.26543 9.64453 6.91934 9.64453C7.57324 9.64453 8.07324 10.3313 8.03418 11.1781C7.99512 12.025 7.50684 12.3328 6.85215 12.3328C6.19746 12.3328 5.6248 11.9883 5.66387 11.1414ZM13.0904 9.64453C13.7451 9.64453 14.3076 10.2945 14.3459 11.1414C14.385 11.9883 13.8115 12.3328 13.1576 12.3328C12.5037 12.3328 12.0146 12.0258 11.9756 11.1781C11.9365 10.3313 12.4357 9.64453 13.0904 9.64453ZM12.3123 13.1008C12.435 13.1133 12.5131 13.2406 12.4654 13.3547C12.0631 14.3164 11.1131 14.9922 10.0045 14.9922C8.8959 14.9922 7.94668 14.3164 7.54355 13.3547C7.4959 13.2406 7.57402 13.1133 7.69668 13.1008C8.41543 13.0281 9.19277 12.9883 10.0045 12.9883C10.8162 12.9883 11.5928 13.0281 12.3123 13.1008Z" fill="white"/>
</svg>
