<svg width="51" height="51" viewBox="0 0 51 51" fill="none" xmlns="http://www.w3.org/2000/svg">
<rect width="51" height="51" rx="25.5" fill="#C8FF80"/>
<g clip-path="url(#clip0_475_54)">
<path fill-rule="evenodd" clip-rule="evenodd" d="M38 25.5C38 32.4036 32.4036 38 25.5 38C18.5964 38 13 32.4036 13 25.5C13 18.5964 18.5964 13 25.5 13C32.4036 13 38 18.5964 38 25.5ZM25.9479 22.2281C24.7321 22.7337 22.3022 23.7804 18.6582 25.368C18.0665 25.6034 17.7565 25.8336 17.7283 26.0586C17.6806 26.4391 18.157 26.5889 18.8057 26.7928C18.8939 26.8206 18.9854 26.8493 19.0791 26.8798C19.7173 27.0873 20.5759 27.33 21.0222 27.3396C21.427 27.3484 21.8789 27.1815 22.3778 26.8389C25.7825 24.5406 27.54 23.379 27.6503 23.3539C27.7282 23.3363 27.836 23.314 27.9091 23.379C27.9822 23.444 27.975 23.567 27.9673 23.6C27.9201 23.8012 26.0501 25.5397 25.0824 26.4394C24.7807 26.7198 24.5667 26.9188 24.523 26.9642C24.425 27.066 24.3251 27.1623 24.2291 27.2548C23.6362 27.8264 23.1916 28.255 24.2538 28.955C24.7642 29.2914 25.1727 29.5695 25.5802 29.847C26.0252 30.1501 26.4691 30.4524 27.0433 30.8288C27.1897 30.9247 27.3294 31.0244 27.4655 31.1214C27.9834 31.4906 28.4487 31.8223 29.0235 31.7694C29.3575 31.7387 29.7026 31.4246 29.8778 30.4879C30.2919 28.2741 31.1059 23.4776 31.294 21.501C31.3105 21.3278 31.2897 21.1062 31.2731 21.0089C31.2564 20.9116 31.2216 20.773 31.0952 20.6704C30.9454 20.5489 30.7142 20.5233 30.6108 20.5251C30.1406 20.5334 29.4193 20.7842 25.9479 22.2281Z" fill="black"/>
</g>
<defs>
<clipPath id="clip0_475_54">
<rect width="25" height="25" fill="white" transform="translate(13 13)"/>
</clipPath>
</defs>
</svg>
