<svg width="51" height="51" viewBox="0 0 51 51" fill="none" xmlns="http://www.w3.org/2000/svg">
<g clip-path="url(#clip0_475_59)">
<rect width="51" height="51" rx="25.5" fill="#C8FF80"/>
<path d="M25 15.1666C22.0655 15.1666 21.6864 15.1666 20.5248 15.2278C19.6265 15.2451 18.7376 15.4146 17.896 15.7291C17.1868 16.0103 16.5876 16.3771 15.9763 16.9885C15.3772 17.5876 14.9981 18.1868 14.7291 18.9082C14.4601 19.5929 14.2767 20.3754 14.2278 21.537C14.1789 22.6864 14.1667 23.0532 14.1667 26C14.1667 28.9345 14.1667 29.3013 14.2278 30.4629C14.2767 31.6245 14.4723 32.4193 14.7291 33.104C15.0103 33.8132 15.3772 34.4123 15.9763 35.0237C16.5876 35.6228 17.1868 36.0018 17.896 36.2708C18.5929 36.5398 19.3755 36.7232 20.5248 36.7722C21.6864 36.8211 22.0532 36.8333 25 36.8333C27.9345 36.8333 28.3013 36.8333 29.4629 36.7722C30.6123 36.7232 31.407 36.5276 32.0918 36.2708C32.8148 35.9998 33.4699 35.5741 34.0115 35.0237C34.6228 34.4123 34.9896 33.8009 35.2586 33.104C35.5276 32.407 35.711 31.6245 35.7722 30.4629C35.8211 29.3136 35.8333 28.9467 35.8333 26C35.8333 23.0654 35.8211 22.6986 35.7722 21.537C35.7494 20.6382 35.5757 19.7495 35.2586 18.9082C34.9871 18.1853 34.5616 17.5303 34.0115 16.9885C33.4002 16.3771 32.8132 16.0103 32.0918 15.7291C31.2493 15.4192 30.3605 15.2538 29.4629 15.24C28.3013 15.1789 27.9345 15.1666 25 15.1666ZM24.0218 17.123H25C27.8857 17.123 28.228 17.123 29.3773 17.1841C30.0618 17.1909 30.74 17.315 31.3826 17.5509C31.8962 17.7466 32.2507 17.9789 32.6298 18.3579C33.0089 18.737 33.2411 19.1038 33.449 19.6051C33.5957 19.9964 33.7669 20.5588 33.8158 21.6226C33.8647 22.7597 33.8769 23.1021 33.8769 26C33.8769 28.8856 33.8769 29.228 33.8158 30.3773C33.809 31.0617 33.685 31.74 33.449 32.3825C33.2534 32.8961 33.0089 33.2507 32.6298 33.6298C32.263 34.0088 31.8962 34.2411 31.3826 34.4367C30.7408 34.6768 30.0625 34.8051 29.3773 34.8158C28.228 34.8647 27.8857 34.8769 25 34.8769C22.1021 34.8769 21.7598 34.8769 20.6226 34.8158C19.9341 34.8098 19.2517 34.6858 18.6051 34.449C18.1038 34.2411 17.7492 34.0088 17.358 33.6298C16.9911 33.263 16.7466 32.8961 16.551 32.3825C16.315 31.74 16.191 31.0617 16.1841 30.3773C16.123 29.228 16.1108 28.8856 16.1108 26C16.1108 23.1021 16.123 22.7597 16.1719 21.6226C16.1773 20.934 16.3014 20.2515 16.5387 19.6051C16.7466 19.1038 16.9789 18.7492 17.358 18.3579C17.737 17.9911 18.0916 17.7466 18.6051 17.5509C19.2516 17.3136 19.9341 17.1895 20.6226 17.1841C21.613 17.1352 22.0043 17.123 24.0218 17.1108V17.123ZM30.7835 18.9204C30.6133 18.9204 30.4447 18.9539 30.2875 19.019C30.1302 19.0842 29.9873 19.1797 29.867 19.3C29.7466 19.4204 29.6512 19.5632 29.5861 19.7205C29.521 19.8777 29.4874 20.0463 29.4874 20.2165C29.4874 20.3867 29.521 20.5552 29.5861 20.7125C29.6512 20.8697 29.7466 21.0126 29.867 21.1329C29.9873 21.2533 30.1302 21.3488 30.2875 21.4139C30.4447 21.479 30.6133 21.5126 30.7835 21.5126C31.1272 21.5126 31.4569 21.376 31.7 21.1329C31.943 20.8899 32.0796 20.5602 32.0796 20.2165C32.0796 19.8727 31.943 19.5431 31.7 19.3C31.4569 19.0569 31.1272 18.9204 30.7835 18.9204ZM25 20.4366C24.2694 20.4366 23.5459 20.5805 22.871 20.8601C22.196 21.1396 21.5827 21.5494 21.0661 22.066C20.5495 22.5826 20.1397 23.196 19.8601 23.871C19.5805 24.5459 19.4366 25.2694 19.4366 26C19.4366 26.7306 19.5805 27.454 19.8601 28.1289C20.1397 28.804 20.5495 29.4172 21.0661 29.9339C21.5827 30.4505 22.196 30.8602 22.871 31.1398C23.5459 31.4194 24.2694 31.5633 25 31.5633C26.4755 31.5633 27.8905 30.9772 28.9339 29.9339C29.9773 28.8905 30.5633 27.4755 30.5633 26C30.5633 24.5245 29.9773 23.1094 28.9339 22.066C27.8905 21.0227 26.4755 20.4366 25 20.4366ZM25 22.3929C25.4736 22.3929 25.9427 22.4862 26.3804 22.6675C26.8179 22.8488 27.2156 23.1145 27.5506 23.4494C27.8854 23.7843 28.1512 24.182 28.3324 24.6196C28.5137 25.0572 28.6071 25.5263 28.6071 26C28.6071 26.4736 28.5137 26.9427 28.3324 27.3803C28.1512 27.8179 27.8854 28.2156 27.5506 28.5506C27.2156 28.8854 26.8179 29.1512 26.3804 29.3324C25.9427 29.5136 25.4736 29.607 25 29.607C24.0433 29.607 23.1259 29.227 22.4494 28.5506C21.773 27.874 21.393 26.9567 21.393 26C21.393 25.0433 21.773 24.1259 22.4494 23.4494C23.1259 22.7729 24.0433 22.3929 25 22.3929Z" fill="black"/>
</g>
<defs>
<clipPath id="clip0_475_59">
<rect width="51" height="51" rx="25.5" fill="white"/>
</clipPath>
</defs>
</svg>
