<svg width="51" height="51" viewBox="0 0 51 51" fill="none" xmlns="http://www.w3.org/2000/svg">
<rect width="51" height="51" rx="25.5" fill="#C8FF80"/>
<path d="M37.9167 26C37.9167 19.4187 32.5814 14.0834 26 14.0834C19.4186 14.0834 14.0833 19.4187 14.0833 26C14.0833 31.5887 17.9308 36.2781 23.1212 37.5658V29.6416H20.6639V26H23.1212V24.4309C23.1212 20.3748 24.9568 18.4949 28.9389 18.4949C29.6937 18.4949 30.9965 18.6429 31.5293 18.7909V22.092C31.2481 22.0624 30.7596 22.0476 30.1526 22.0476C28.1986 22.0476 27.4437 22.7878 27.4437 24.7122V26H31.3361L30.6674 29.6416H27.4437V37.8294C33.3441 37.1168 37.9167 32.0927 37.9167 26Z" fill="black"/>
</svg>
