<svg width="479" height="70" viewBox="0 0 479 70" fill="none" xmlns="http://www.w3.org/2000/svg">
<path d="M44.1653 27.3203L45.595 27.1953C45.6627 27.7682 45.8189 28.2396 46.0637 28.6094C46.3137 28.974 46.6991 29.2708 47.22 29.5C47.7408 29.724 48.3267 29.8359 48.9778 29.8359C49.5559 29.8359 50.0663 29.75 50.509 29.5781C50.9517 29.4062 51.2799 29.1719 51.4934 28.875C51.7122 28.5729 51.8215 28.2448 51.8215 27.8906C51.8215 27.5312 51.7174 27.2188 51.509 26.9531C51.3007 26.6823 50.9569 26.4557 50.4778 26.2734C50.1705 26.1536 49.4908 25.9688 48.4387 25.7188C47.3866 25.4635 46.6497 25.224 46.2278 25C45.6809 24.7135 45.2721 24.3594 45.0012 23.9375C44.7356 23.5104 44.6028 23.0339 44.6028 22.5078C44.6028 21.9297 44.7668 21.3906 45.095 20.8906C45.4231 20.3854 45.9023 20.0026 46.5325 19.7422C47.1627 19.4818 47.8632 19.3516 48.634 19.3516C49.483 19.3516 50.2304 19.4896 50.8762 19.7656C51.5273 20.0365 52.0273 20.4375 52.3762 20.9688C52.7252 21.5 52.9127 22.1016 52.9387 22.7734L51.4856 22.8828C51.4075 22.1589 51.1418 21.612 50.6887 21.2422C50.2408 20.8724 49.5767 20.6875 48.6965 20.6875C47.7799 20.6875 47.1106 20.8568 46.6887 21.1953C46.2721 21.5286 46.0637 21.9323 46.0637 22.4062C46.0637 22.8177 46.2122 23.1562 46.509 23.4219C46.8007 23.6875 47.5611 23.9609 48.7903 24.2422C50.0247 24.5182 50.871 24.7604 51.3293 24.9688C51.996 25.276 52.4882 25.6667 52.8059 26.1406C53.1236 26.6094 53.2825 27.151 53.2825 27.7656C53.2825 28.375 53.108 28.9505 52.759 29.4922C52.4101 30.0286 51.9075 30.4479 51.2512 30.75C50.6002 31.0469 49.8658 31.1953 49.0481 31.1953C48.0116 31.1953 47.1418 31.0443 46.4387 30.7422C45.7408 30.4401 45.1913 29.987 44.7903 29.3828C44.3944 28.7734 44.1861 28.0859 44.1653 27.3203ZM58.0834 29.7422L58.2865 30.9844C57.8907 31.0677 57.5365 31.1094 57.224 31.1094C56.7136 31.1094 56.3178 31.0286 56.0365 30.8672C55.7553 30.7057 55.5574 30.4948 55.4428 30.2344C55.3282 29.9688 55.2709 29.4141 55.2709 28.5703V23.7969H54.2397V22.7031H55.2709V20.6484L56.6693 19.8047V22.7031H58.0834V23.7969H56.6693V28.6484C56.6693 29.0495 56.6928 29.3073 56.7397 29.4219C56.7917 29.5365 56.8725 29.6276 56.9818 29.6953C57.0964 29.763 57.2579 29.7969 57.4662 29.7969C57.6225 29.7969 57.8282 29.7786 58.0834 29.7422ZM64.7203 29.9766C64.1995 30.4193 63.6968 30.7318 63.2125 30.9141C62.7333 31.0964 62.2177 31.1875 61.6656 31.1875C60.7541 31.1875 60.0536 30.9661 59.564 30.5234C59.0745 30.0755 58.8297 29.5052 58.8297 28.8125C58.8297 28.4062 58.9208 28.0365 59.1031 27.7031C59.2906 27.3646 59.5328 27.0938 59.8297 26.8906C60.1317 26.6875 60.4703 26.5339 60.8453 26.4297C61.1213 26.3568 61.538 26.2865 62.0953 26.2188C63.2307 26.0833 64.0666 25.9219 64.6031 25.7344C64.6083 25.5417 64.6109 25.4193 64.6109 25.3672C64.6109 24.7943 64.4781 24.3906 64.2125 24.1562C63.8531 23.8385 63.3192 23.6797 62.6109 23.6797C61.9495 23.6797 61.4599 23.7969 61.1422 24.0312C60.8297 24.2604 60.5979 24.6693 60.4468 25.2578L59.0718 25.0703C59.1968 24.4818 59.4026 24.0078 59.689 23.6484C59.9755 23.2839 60.3896 23.0052 60.9312 22.8125C61.4729 22.6146 62.1005 22.5156 62.814 22.5156C63.5224 22.5156 64.0979 22.599 64.5406 22.7656C64.9833 22.9323 65.3088 23.1432 65.5172 23.3984C65.7255 23.6484 65.8713 23.9661 65.9547 24.3516C66.0015 24.5911 66.025 25.0234 66.025 25.6484V27.5234C66.025 28.8307 66.0536 29.6589 66.1109 30.0078C66.1734 30.3516 66.2932 30.6823 66.4703 31H65.0015C64.8557 30.7083 64.762 30.3672 64.7203 29.9766ZM64.6031 26.8359C64.0927 27.0443 63.3271 27.2214 62.3062 27.3672C61.7281 27.4505 61.3192 27.5443 61.0797 27.6484C60.8401 27.7526 60.6552 27.9062 60.525 28.1094C60.3948 28.3073 60.3297 28.5286 60.3297 28.7734C60.3297 29.1484 60.4703 29.4609 60.7515 29.7109C61.038 29.9609 61.4547 30.0859 62.0015 30.0859C62.5432 30.0859 63.025 29.9688 63.4468 29.7344C63.8687 29.4948 64.1786 29.1693 64.3765 28.7578C64.5276 28.4401 64.6031 27.9714 64.6031 27.3516V26.8359ZM68.0368 31V22.7031H69.3025V23.9609C69.6254 23.3724 69.9223 22.9844 70.1931 22.7969C70.4691 22.6094 70.7712 22.5156 71.0993 22.5156C71.5733 22.5156 72.0551 22.6667 72.5447 22.9688L72.0603 24.2734C71.7165 24.0703 71.3728 23.9688 71.029 23.9688C70.7217 23.9688 70.4457 24.0625 70.2009 24.25C69.9561 24.4323 69.7816 24.6875 69.6775 25.0156C69.5212 25.5156 69.4431 26.0625 69.4431 26.6562V31H68.0368ZM76.2909 29.7422L76.494 30.9844C76.0982 31.0677 75.744 31.1094 75.4315 31.1094C74.9211 31.1094 74.5253 31.0286 74.244 30.8672C73.9628 30.7057 73.7649 30.4948 73.6503 30.2344C73.5357 29.9688 73.4784 29.4141 73.4784 28.5703V23.7969H72.4472V22.7031H73.4784V20.6484L74.8768 19.8047V22.7031H76.2909V23.7969H74.8768V28.6484C74.8768 29.0495 74.9003 29.3073 74.9472 29.4219C74.9992 29.5365 75.08 29.6276 75.1893 29.6953C75.3039 29.763 75.4654 29.7969 75.6737 29.7969C75.83 29.7969 76.0357 29.7786 76.2909 29.7422ZM81.7756 31V19.5469H83.1818V31H81.7756ZM90.889 28.3281L92.3422 28.5078C92.113 29.3568 91.6885 30.0156 91.0687 30.4844C90.4489 30.9531 89.6573 31.1875 88.6937 31.1875C87.4802 31.1875 86.5166 30.8151 85.8031 30.0703C85.0948 29.3203 84.7406 28.2708 84.7406 26.9219C84.7406 25.526 85.1 24.4427 85.8187 23.6719C86.5375 22.901 87.4698 22.5156 88.6156 22.5156C89.725 22.5156 90.6312 22.8932 91.3343 23.6484C92.0375 24.4036 92.389 25.4661 92.389 26.8359C92.389 26.9193 92.3864 27.0443 92.3812 27.2109H86.1937C86.2458 28.1224 86.5036 28.8203 86.9672 29.3047C87.4307 29.7891 88.0088 30.0312 88.7015 30.0312C89.2172 30.0312 89.6573 29.8958 90.0218 29.625C90.3864 29.3542 90.6755 28.9219 90.889 28.3281ZM86.2718 26.0547H90.9047C90.8422 25.3568 90.6651 24.8333 90.3734 24.4844C89.9255 23.9427 89.3448 23.6719 88.6312 23.6719C87.9854 23.6719 87.4411 23.888 86.9984 24.3203C86.5609 24.7526 86.3187 25.3307 86.2718 26.0547ZM99.3697 29.9766C98.8488 30.4193 98.3462 30.7318 97.8618 30.9141C97.3827 31.0964 96.8671 31.1875 96.315 31.1875C95.4035 31.1875 94.703 30.9661 94.2134 30.5234C93.7238 30.0755 93.479 29.5052 93.479 28.8125C93.479 28.4062 93.5702 28.0365 93.7525 27.7031C93.94 27.3646 94.1822 27.0938 94.479 26.8906C94.7811 26.6875 95.1197 26.5339 95.4947 26.4297C95.7707 26.3568 96.1874 26.2865 96.7447 26.2188C97.8801 26.0833 98.716 25.9219 99.2525 25.7344C99.2577 25.5417 99.2603 25.4193 99.2603 25.3672C99.2603 24.7943 99.1275 24.3906 98.8618 24.1562C98.5025 23.8385 97.9686 23.6797 97.2603 23.6797C96.5988 23.6797 96.1092 23.7969 95.7915 24.0312C95.479 24.2604 95.2473 24.6693 95.0962 25.2578L93.7212 25.0703C93.8462 24.4818 94.052 24.0078 94.3384 23.6484C94.6249 23.2839 95.0389 23.0052 95.5806 22.8125C96.1223 22.6146 96.7499 22.5156 97.4634 22.5156C98.1717 22.5156 98.7473 22.599 99.19 22.7656C99.6327 22.9323 99.9582 23.1432 100.167 23.3984C100.375 23.6484 100.521 23.9661 100.604 24.3516C100.651 24.5911 100.674 25.0234 100.674 25.6484V27.5234C100.674 28.8307 100.703 29.6589 100.76 30.0078C100.823 30.3516 100.943 30.6823 101.12 31H99.6509C99.5051 30.7083 99.4113 30.3672 99.3697 29.9766ZM99.2525 26.8359C98.7421 27.0443 97.9764 27.2214 96.9556 27.3672C96.3775 27.4505 95.9686 27.5443 95.729 27.6484C95.4895 27.7526 95.3046 27.9062 95.1743 28.1094C95.0441 28.3073 94.979 28.5286 94.979 28.7734C94.979 29.1484 95.1197 29.4609 95.4009 29.7109C95.6874 29.9609 96.104 30.0859 96.6509 30.0859C97.1926 30.0859 97.6743 29.9688 98.0962 29.7344C98.5181 29.4948 98.828 29.1693 99.0259 28.7578C99.177 28.4401 99.2525 27.9714 99.2525 27.3516V26.8359ZM102.686 31V22.7031H103.952V23.9609C104.275 23.3724 104.572 22.9844 104.842 22.7969C105.119 22.6094 105.421 22.5156 105.749 22.5156C106.223 22.5156 106.704 22.6667 107.194 22.9688L106.71 24.2734C106.366 24.0703 106.022 23.9688 105.678 23.9688C105.371 23.9688 105.095 24.0625 104.85 24.25C104.605 24.4323 104.431 24.6875 104.327 25.0156C104.171 25.5156 104.092 26.0625 104.092 26.6562V31H102.686ZM107.87 31V22.7031H109.136V23.8828C109.745 22.9714 110.625 22.5156 111.776 22.5156C112.276 22.5156 112.735 22.6068 113.151 22.7891C113.573 22.9661 113.888 23.2005 114.097 23.4922C114.305 23.7839 114.451 24.1302 114.534 24.5312C114.586 24.7917 114.612 25.2474 114.612 25.8984V31H113.206V25.9531C113.206 25.3802 113.151 24.9531 113.042 24.6719C112.932 24.3854 112.737 24.1589 112.456 23.9922C112.18 23.8203 111.854 23.7344 111.479 23.7344C110.88 23.7344 110.362 23.9245 109.925 24.3047C109.492 24.6849 109.276 25.4062 109.276 26.4688V31H107.87ZM116.624 21.1641V19.5469H118.03V21.1641H116.624ZM116.624 31V22.7031H118.03V31H116.624ZM120.019 31V22.7031H121.284V23.8828C121.894 22.9714 122.774 22.5156 123.925 22.5156C124.425 22.5156 124.883 22.6068 125.3 22.7891C125.722 22.9661 126.037 23.2005 126.245 23.4922C126.454 23.7839 126.599 24.1302 126.683 24.5312C126.735 24.7917 126.761 25.2474 126.761 25.8984V31H125.355V25.9531C125.355 25.3802 125.3 24.9531 125.191 24.6719C125.081 24.3854 124.886 24.1589 124.605 23.9922C124.329 23.8203 124.003 23.7344 123.628 23.7344C123.029 23.7344 122.511 23.9245 122.073 24.3047C121.641 24.6849 121.425 25.4062 121.425 26.4688V31H120.019ZM128.507 31.6875L129.874 31.8906C129.932 32.3125 130.09 32.6198 130.351 32.8125C130.7 33.0729 131.176 33.2031 131.781 33.2031C132.432 33.2031 132.934 33.0729 133.288 32.8125C133.643 32.5521 133.882 32.1875 134.007 31.7188C134.08 31.4323 134.114 30.8307 134.109 29.9141C133.494 30.638 132.729 31 131.812 31C130.671 31 129.788 30.5885 129.163 29.7656C128.538 28.9427 128.226 27.9557 128.226 26.8047C128.226 26.013 128.369 25.2839 128.656 24.6172C128.942 23.9453 129.356 23.4271 129.898 23.0625C130.445 22.6979 131.085 22.5156 131.82 22.5156C132.799 22.5156 133.606 22.9115 134.242 23.7031V22.7031H135.538V29.875C135.538 31.1667 135.406 32.0807 135.14 32.6172C134.88 33.1589 134.463 33.5859 133.89 33.8984C133.322 34.2109 132.622 34.3672 131.788 34.3672C130.799 34.3672 129.999 34.1432 129.39 33.6953C128.781 33.2526 128.486 32.5833 128.507 31.6875ZM129.671 26.7031C129.671 27.7917 129.887 28.5859 130.32 29.0859C130.752 29.5859 131.294 29.8359 131.945 29.8359C132.59 29.8359 133.132 29.5885 133.57 29.0938C134.007 28.5938 134.226 27.8125 134.226 26.75C134.226 25.7344 133.999 24.9688 133.546 24.4531C133.098 23.9375 132.557 23.6797 131.921 23.6797C131.296 23.6797 130.765 23.9349 130.327 24.4453C129.89 24.9505 129.671 25.7031 129.671 26.7031Z" fill="black"/>
<rect width="479" height="70" fill="#C8FF80"/>
<path d="M159.181 25.7551C157.254 24.8728 155.22 24.2468 153.13 23.8932C152.844 24.4045 152.585 24.9305 152.355 25.469C150.128 25.1336 147.865 25.1336 145.638 25.469C145.408 24.9305 145.149 24.4046 144.863 23.8932C142.772 24.2498 140.736 24.8773 138.807 25.7597C134.977 31.4261 133.939 36.9518 134.458 42.399C136.701 44.0562 139.211 45.3164 141.88 46.1251C142.481 45.3168 143.013 44.4594 143.47 43.5618C142.602 43.2376 141.764 42.8378 140.966 42.3667C141.176 42.2144 141.382 42.0575 141.58 41.9052C143.901 42.997 146.435 43.5628 149 43.5628C151.565 43.5628 154.099 42.997 156.42 41.9052C156.621 42.0691 156.826 42.226 157.033 42.3667C156.234 42.8386 155.395 43.2392 154.526 43.5642C154.982 44.4612 155.514 45.318 156.115 46.1251C158.786 45.3196 161.299 44.06 163.542 42.4014C164.151 36.0843 162.501 30.6094 159.181 25.7551ZM144.127 39.049C142.681 39.049 141.486 37.7363 141.486 36.1212C141.486 34.5062 142.639 33.1819 144.123 33.1819C145.606 33.1819 146.792 34.5062 146.767 36.1212C146.741 37.7363 145.601 39.049 144.127 39.049ZM153.873 39.049C152.424 39.049 151.233 37.7363 151.233 36.1212C151.233 34.5062 152.387 33.1819 153.873 33.1819C155.359 33.1819 156.535 34.5062 156.51 36.1212C156.484 37.7363 155.347 39.049 153.873 39.049Z" fill="black"/>
<path d="M182.945 26.3203H186.402V37.1953C186.402 38.6172 186.277 39.7109 186.027 40.4766C185.691 41.4766 185.082 42.2812 184.199 42.8906C183.316 43.4922 182.152 43.793 180.707 43.793C179.012 43.793 177.707 43.3203 176.793 42.375C175.879 41.4219 175.418 40.0273 175.41 38.1914L178.68 37.8164C178.719 38.8008 178.863 39.4961 179.113 39.9023C179.488 40.5195 180.059 40.8281 180.824 40.8281C181.598 40.8281 182.145 40.6094 182.465 40.1719C182.785 39.7266 182.945 38.8086 182.945 37.418V26.3203ZM189.162 35.0156C189.162 33.2656 189.424 31.7969 189.948 30.6094C190.338 29.7344 190.869 28.9492 191.541 28.2539C192.221 27.5586 192.963 27.043 193.768 26.707C194.838 26.2539 196.073 26.0273 197.471 26.0273C200.002 26.0273 202.026 26.8125 203.541 28.3828C205.065 29.9531 205.826 32.1367 205.826 34.9336C205.826 37.707 205.073 39.8789 203.565 41.4492C202.057 43.0117 200.041 43.793 197.518 43.793C194.963 43.793 192.932 43.0156 191.424 41.4609C189.916 39.8984 189.162 37.75 189.162 35.0156ZM192.737 34.8984C192.737 36.8438 193.186 38.3203 194.084 39.3281C194.983 40.3281 196.123 40.8281 197.506 40.8281C198.889 40.8281 200.022 40.332 200.905 39.3398C201.795 38.3398 202.24 36.8438 202.24 34.8516C202.24 32.8828 201.807 31.4141 200.94 30.4453C200.08 29.4766 198.936 28.9922 197.506 28.9922C196.076 28.9922 194.924 29.4844 194.049 30.4688C193.174 31.4453 192.737 32.9219 192.737 34.8984ZM208.2 43.5V26.3203H211.668V43.5H208.2ZM214.78 43.5V26.3203H218.155L225.186 37.793V26.3203H228.409V43.5H224.928L218.003 32.2969V43.5H214.78ZM238.277 26.3203H244.616C246.046 26.3203 247.136 26.4297 247.886 26.6484C248.894 26.9453 249.757 27.4727 250.476 28.2305C251.195 28.9883 251.741 29.918 252.116 31.0195C252.491 32.1133 252.679 33.4648 252.679 35.0742C252.679 36.4883 252.503 37.707 252.152 38.7305C251.722 39.9805 251.109 40.9922 250.312 41.7656C249.71 42.3516 248.898 42.8086 247.874 43.1367C247.109 43.3789 246.085 43.5 244.804 43.5H238.277V26.3203ZM241.745 29.2266V40.6055H244.335C245.304 40.6055 246.003 40.5508 246.433 40.4414C246.995 40.3008 247.46 40.0625 247.827 39.7266C248.202 39.3906 248.507 38.8398 248.741 38.0742C248.976 37.3008 249.093 36.25 249.093 34.9219C249.093 33.5938 248.976 32.5742 248.741 31.8633C248.507 31.1523 248.179 30.5977 247.757 30.1992C247.335 29.8008 246.8 29.5312 246.152 29.3906C245.667 29.2812 244.718 29.2266 243.304 29.2266H241.745ZM255.287 43.5V26.3203H258.755V43.5H255.287ZM260.953 37.9102L264.328 37.582C264.531 38.7148 264.941 39.5469 265.558 40.0781C266.183 40.6094 267.023 40.875 268.078 40.875C269.195 40.875 270.035 40.6406 270.597 40.1719C271.168 39.6953 271.453 39.1406 271.453 38.5078C271.453 38.1016 271.332 37.7578 271.09 37.4766C270.855 37.1875 270.441 36.9375 269.847 36.7266C269.441 36.5859 268.515 36.3359 267.07 35.9766C265.211 35.5156 263.906 34.9492 263.156 34.2773C262.101 33.332 261.574 32.1797 261.574 30.8203C261.574 29.9453 261.82 29.1289 262.312 28.3711C262.812 27.6055 263.527 27.0234 264.457 26.625C265.394 26.2266 266.523 26.0273 267.843 26.0273C270 26.0273 271.621 26.5 272.707 27.4453C273.8 28.3906 274.375 29.6523 274.429 31.2305L270.961 31.3828C270.812 30.5 270.492 29.8672 270 29.4844C269.515 29.0938 268.785 28.8984 267.808 28.8984C266.8 28.8984 266.011 29.1055 265.441 29.5195C265.074 29.7852 264.89 30.1406 264.89 30.5859C264.89 30.9922 265.062 31.3398 265.406 31.6289C265.843 31.9961 266.906 32.3789 268.593 32.7773C270.281 33.1758 271.527 33.5898 272.332 34.0195C273.144 34.4414 273.777 35.0234 274.23 35.7656C274.691 36.5 274.922 37.4102 274.922 38.4961C274.922 39.4805 274.648 40.4023 274.101 41.2617C273.554 42.1211 272.781 42.7617 271.781 43.1836C270.781 43.5977 269.535 43.8047 268.043 43.8047C265.871 43.8047 264.203 43.3047 263.039 42.3047C261.875 41.2969 261.179 39.832 260.953 37.9102ZM288.592 37.1836L291.955 38.25C291.439 40.125 290.58 41.5195 289.377 42.4336C288.182 43.3398 286.662 43.793 284.818 43.793C282.537 43.793 280.662 43.0156 279.193 41.4609C277.725 39.8984 276.99 37.7656 276.99 35.0625C276.99 32.2031 277.728 29.9844 279.205 28.4062C280.682 26.8203 282.623 26.0273 285.029 26.0273C287.131 26.0273 288.838 26.6484 290.15 27.8906C290.932 28.625 291.518 29.6797 291.908 31.0547L288.475 31.875C288.271 30.9844 287.846 30.2812 287.197 29.7656C286.557 29.25 285.775 28.9922 284.853 28.9922C283.58 28.9922 282.545 29.4492 281.748 30.3633C280.959 31.2773 280.564 32.7578 280.564 34.8047C280.564 36.9766 280.955 38.5234 281.736 39.4453C282.518 40.3672 283.533 40.8281 284.783 40.8281C285.705 40.8281 286.498 40.5352 287.162 39.9492C287.826 39.3633 288.303 38.4414 288.592 37.1836ZM294 35.0156C294 33.2656 294.262 31.7969 294.785 30.6094C295.176 29.7344 295.707 28.9492 296.379 28.2539C297.059 27.5586 297.801 27.043 298.606 26.707C299.676 26.2539 300.91 26.0273 302.309 26.0273C304.84 26.0273 306.863 26.8125 308.379 28.3828C309.902 29.9531 310.664 32.1367 310.664 34.9336C310.664 37.707 309.91 39.8789 308.402 41.4492C306.895 43.0117 304.879 43.793 302.356 43.793C299.801 43.793 297.77 43.0156 296.262 41.4609C294.754 39.8984 294 37.75 294 35.0156ZM297.574 34.8984C297.574 36.8438 298.024 38.3203 298.922 39.3281C299.82 40.3281 300.961 40.8281 302.344 40.8281C303.727 40.8281 304.86 40.332 305.742 39.3398C306.633 38.3398 307.078 36.8438 307.078 34.8516C307.078 32.8828 306.645 31.4141 305.777 30.4453C304.918 29.4766 303.774 28.9922 302.344 28.9922C300.914 28.9922 299.762 29.4844 298.887 30.4688C298.012 31.4453 297.574 32.9219 297.574 34.8984ZM313.155 43.5V26.3203H320.455C322.291 26.3203 323.623 26.4766 324.452 26.7891C325.288 27.0938 325.955 27.6406 326.455 28.4297C326.955 29.2188 327.205 30.1211 327.205 31.1367C327.205 32.4258 326.827 33.4922 326.069 34.3359C325.311 35.1719 324.178 35.6992 322.67 35.918C323.42 36.3555 324.038 36.8359 324.522 37.3594C325.014 37.8828 325.674 38.8125 326.502 40.1484L328.6 43.5H324.452L321.944 39.7617C321.053 38.4258 320.444 37.5859 320.116 37.2422C319.788 36.8906 319.44 36.6523 319.073 36.5273C318.705 36.3945 318.123 36.3281 317.327 36.3281H316.623V43.5H313.155ZM316.623 33.5859H319.19C320.854 33.5859 321.893 33.5156 322.307 33.375C322.721 33.2344 323.045 32.9922 323.28 32.6484C323.514 32.3047 323.631 31.875 323.631 31.3594C323.631 30.7812 323.475 30.3164 323.163 29.9648C322.858 29.6055 322.424 29.3789 321.862 29.2852C321.58 29.2461 320.737 29.2266 319.33 29.2266H316.623V33.5859ZM330.235 26.3203H336.575C338.005 26.3203 339.094 26.4297 339.844 26.6484C340.852 26.9453 341.715 27.4727 342.434 28.2305C343.153 28.9883 343.7 29.918 344.075 31.0195C344.45 32.1133 344.637 33.4648 344.637 35.0742C344.637 36.4883 344.462 37.707 344.11 38.7305C343.68 39.9805 343.067 40.9922 342.27 41.7656C341.669 42.3516 340.856 42.8086 339.833 43.1367C339.067 43.3789 338.044 43.5 336.762 43.5H330.235V26.3203ZM333.704 29.2266V40.6055H336.294C337.262 40.6055 337.962 40.5508 338.391 40.4414C338.954 40.3008 339.419 40.0625 339.786 39.7266C340.161 39.3906 340.465 38.8398 340.7 38.0742C340.934 37.3008 341.051 36.25 341.051 34.9219C341.051 33.5938 340.934 32.5742 340.7 31.8633C340.465 31.1523 340.137 30.5977 339.715 30.1992C339.294 29.8008 338.758 29.5312 338.11 29.3906C337.626 29.2812 336.676 29.2266 335.262 29.2266H333.704Z" fill="black"/>
</svg>
