<svg width="51" height="51" viewBox="0 0 51 51" fill="none" xmlns="http://www.w3.org/2000/svg">
<g clip-path="url(#clip0_475_67)">
<rect width="51" height="51" rx="25.5" fill="#C8FF80"/>
<path fill-rule="evenodd" clip-rule="evenodd" d="M36.4189 17.2223C37.5684 17.532 38.4721 18.4356 38.7776 19.581C39.3333 21.6597 39.3333 25.9996 39.3333 25.9996C39.3333 25.9996 39.3333 30.3393 38.7776 32.4181C38.4679 33.5676 37.5644 34.4713 36.4189 34.7766C34.3401 35.3324 26 35.3324 26 35.3324C26 35.3324 17.664 35.3324 15.5811 34.7766C14.4314 34.4669 13.5278 33.5634 13.2224 32.4181C12.6667 30.3393 12.6667 25.9996 12.6667 25.9996C12.6667 25.9996 12.6667 21.6597 13.2224 19.581C13.5321 18.4314 14.4357 17.5278 15.5811 17.2223C17.664 16.6666 26 16.6666 26 16.6666C26 16.6666 34.3401 16.6666 36.4189 17.2223ZM30.2615 25.9989L23.3339 29.9992V21.9984L30.2615 25.9989Z" fill="black"/>
</g>
<defs>
<clipPath id="clip0_475_67">
<rect width="51" height="51" rx="25.5" fill="white"/>
</clipPath>
</defs>
</svg>
