<svg width="19" height="19" viewBox="0 0 19 19" fill="none" xmlns="http://www.w3.org/2000/svg">
<g clip-path="url(#clip0_134_6657)">
<path fill-rule="evenodd" clip-rule="evenodd" d="M18.0688 9.02539C18.0688 13.996 14.0394 18.0254 9.06885 18.0254C4.09829 18.0254 0.0688477 13.996 0.0688477 9.02539C0.0688477 4.05483 4.09829 0.0253906 9.06885 0.0253906C14.0394 0.0253906 18.0688 4.05483 18.0688 9.02539ZM9.39137 6.66959C8.51598 7.03369 6.76645 7.78729 4.14277 8.93038C3.71672 9.09981 3.49354 9.26555 3.47322 9.42762C3.43889 9.70151 3.78188 9.80936 4.24895 9.95623C4.31248 9.97621 4.37831 9.99691 4.4458 10.0188C4.90533 10.1682 5.52347 10.343 5.84481 10.3499C6.13631 10.3562 6.46164 10.236 6.82083 9.9894C9.27222 8.33464 10.5376 7.49825 10.6171 7.48022C10.6731 7.4675 10.7508 7.4515 10.8034 7.49827C10.856 7.54505 10.8509 7.63363 10.8453 7.65739C10.8113 7.80225 9.46494 9.05396 8.76819 9.70172C8.55098 9.90366 8.3969 10.0469 8.36541 10.0796C8.29485 10.1529 8.22294 10.2222 8.15383 10.2888C7.72692 10.7004 7.40678 11.009 8.17156 11.513C8.53908 11.7552 8.83317 11.9554 9.12657 12.1553C9.44698 12.3735 9.76657 12.5911 10.1801 12.8621C10.2854 12.9312 10.386 13.0029 10.484 13.0728C10.8569 13.3386 11.1919 13.5775 11.6058 13.5394C11.8463 13.5172 12.0947 13.2911 12.2209 12.6167C12.519 11.0227 13.1051 7.56923 13.2405 6.14612C13.2524 6.02144 13.2374 5.86187 13.2255 5.79182C13.2135 5.72177 13.1884 5.62197 13.0974 5.54809C12.9895 5.46059 12.8231 5.44214 12.7486 5.44345C12.4101 5.44942 11.8908 5.63 9.39137 6.66959Z" fill="white"/>
</g>
<defs>
<clipPath id="clip0_134_6657">
<rect width="18" height="18" fill="white" transform="translate(0.0688477 0.0253906)"/>
</clipPath>
</defs>
</svg>
