<svg width="35" height="22" viewBox="0 0 35 22" fill="none" xmlns="http://www.w3.org/2000/svg">
<path d="M34.7133 1.77237C34.5411 1.3578 34.2117 1.02835 33.7971 0.856189C33.5932 0.769252 33.3741 0.72314 33.1524 0.720459H24.6693C24.2193 0.720459 23.7878 0.89921 23.4696 1.21739C23.1514 1.53557 22.9727 1.96711 22.9727 2.41708C22.9727 2.86706 23.1514 3.2986 23.4696 3.61678C23.7878 3.93495 24.2193 4.11371 24.6693 4.11371H29.0636L19.5794 13.5978L13.9975 7.99897C13.8398 7.83995 13.6522 7.71373 13.4454 7.6276C13.2387 7.54146 13.0169 7.49712 12.7929 7.49712C12.569 7.49712 12.3472 7.54146 12.1405 7.6276C11.9337 7.71373 11.7461 7.83995 11.5883 7.99897L1.4086 18.1787C1.24957 18.3364 1.12336 18.5241 1.03722 18.7308C0.951085 18.9376 0.906738 19.1593 0.906738 19.3833C0.906738 19.6073 0.951085 19.8291 1.03722 20.0358C1.12336 20.2425 1.24957 20.4302 1.4086 20.5879C1.56632 20.7469 1.75397 20.8732 1.96072 20.9593C2.16747 21.0454 2.38922 21.0898 2.6132 21.0898C2.83717 21.0898 3.05893 21.0454 3.26568 20.9593C3.47243 20.8732 3.66008 20.7469 3.8178 20.5879L12.7929 11.5958L18.3748 17.1947C18.5326 17.3537 18.7202 17.4799 18.927 17.566C19.1337 17.6522 19.3555 17.6965 19.5794 17.6965C19.8034 17.6965 20.0252 17.6522 20.2319 17.566C20.4387 17.4799 20.6263 17.3537 20.784 17.1947L31.4558 6.50595V10.9002C31.4558 11.3502 31.6345 11.7817 31.9527 12.0999C32.2709 12.4181 32.7024 12.5968 33.1524 12.5968C33.6024 12.5968 34.0339 12.4181 34.3521 12.0999C34.6703 11.7817 34.849 11.3502 34.849 10.9002V2.41708C34.8464 2.19537 34.8003 1.97634 34.7133 1.77237Z" fill="#97D547"/>
</svg>
