<svg width="22" height="22" viewBox="0 0 22 22" fill="none" xmlns="http://www.w3.org/2000/svg">
<path d="M21.7809 6.60039C21.7809 6.60039 21.566 5.08359 20.9043 4.41758C20.0664 3.54102 19.1297 3.53672 18.7 3.48516C15.6234 3.26172 11.0043 3.26172 11.0043 3.26172H10.9957C10.9957 3.26172 6.37656 3.26172 3.3 3.48516C2.87031 3.53672 1.93359 3.54102 1.0957 4.41758C0.433984 5.08359 0.223437 6.60039 0.223437 6.60039C0.223437 6.60039 0 8.38359 0 10.1625V11.8297C0 13.6086 0.219141 15.3918 0.219141 15.3918C0.219141 15.3918 0.433984 16.9086 1.09141 17.5746C1.9293 18.4512 3.0293 18.4211 3.51914 18.5156C5.28086 18.6832 11 18.7348 11 18.7348C11 18.7348 15.6234 18.7262 18.7 18.507C19.1297 18.4555 20.0664 18.4512 20.9043 17.5746C21.566 16.9086 21.7809 15.3918 21.7809 15.3918C21.7809 15.3918 22 13.6129 22 11.8297V10.1625C22 8.38359 21.7809 6.60039 21.7809 6.60039ZM8.72695 13.8535V7.67031L14.6695 10.7727L8.72695 13.8535Z" fill="white"/>
</svg>
