<svg width="471" height="248" viewBox="0 0 471 248" fill="none" xmlns="http://www.w3.org/2000/svg">
<mask id="path-1-inside-1_393_59" fill="white">
<path fill-rule="evenodd" clip-rule="evenodd" d="M354.877 161.865C354.877 126.818 326.465 98.4067 291.419 98.4067L151.88 98.4067L470.603 443.965H337.371L100.629 187.29V443.966H0.308594V62.6629C-0.114855 58.7228 -0.105169 54.7746 0.308594 50.8847V1.43774H45.3909C48.8056 0.8052 52.3698 0.471435 56.0682 0.471436L291.419 0.47144C380.554 0.471447 452.812 72.7297 452.812 161.865V248.426H354.877L354.877 161.865Z"/>
</mask>
<path fill-rule="evenodd" clip-rule="evenodd" d="M354.877 161.865C354.877 126.818 326.465 98.4067 291.419 98.4067L151.88 98.4067L470.603 443.965H337.371L100.629 187.29V443.966H0.308594V62.6629C-0.114855 58.7228 -0.105169 54.7746 0.308594 50.8847V1.43774H45.3909C48.8056 0.8052 52.3698 0.471435 56.0682 0.471436L291.419 0.47144C380.554 0.471447 452.812 72.7297 452.812 161.865V248.426H354.877L354.877 161.865Z" fill="url(#paint0_linear_393_59)"/>
<path d="M291.419 98.4067V102.407V98.4067ZM354.877 161.865H358.877H354.877ZM151.88 98.4067V94.4067H142.749L148.94 101.119L151.88 98.4067ZM470.603 443.965V447.965H479.734L473.543 441.253L470.603 443.965ZM337.371 443.965L334.431 446.677L335.619 447.965H337.371V443.965ZM100.629 187.29L103.569 184.578L96.629 177.053V187.29H100.629ZM100.629 443.966V447.966H104.629V443.966H100.629ZM0.308594 443.966H-3.69141V447.966H0.308594V443.966ZM0.308594 62.6629H4.30859V62.4486L4.28569 62.2355L0.308594 62.6629ZM0.308594 50.8847L4.28616 51.3077L4.30859 51.0968V50.8847H0.308594ZM0.308594 1.43774V-2.56226H-3.69141V1.43774H0.308594ZM45.3909 1.43774V5.43774H45.7583L46.1195 5.37083L45.3909 1.43774ZM56.0682 0.471436V4.47144V0.471436ZM291.419 0.47144V-3.52856V0.47144ZM452.812 248.426V252.426H456.812V248.426H452.812ZM354.877 248.426H350.877V252.426H354.877V248.426ZM291.419 102.407C324.256 102.407 350.877 129.027 350.877 161.865H358.877C358.877 124.609 328.675 94.4067 291.419 94.4067V102.407ZM151.88 102.407L291.419 102.407V94.4067L151.88 94.4067V102.407ZM473.543 441.253L154.821 95.6947L148.94 101.119L467.663 446.677L473.543 441.253ZM337.371 447.965H470.603V439.965H337.371V447.965ZM97.6887 190.002L334.431 446.677L340.311 441.253L103.569 184.578L97.6887 190.002ZM96.629 187.29V443.966H104.629V187.29H96.629ZM100.629 439.966H0.308594V447.966H100.629V439.966ZM4.30859 443.966V62.6629H-3.69141V443.966H4.30859ZM-3.66897 50.4616C-4.11214 54.628 -4.123 58.8614 -3.6685 63.0903L4.28569 62.2355C3.89328 58.5842 3.9018 54.9212 4.28616 51.3077L-3.66897 50.4616ZM4.30859 50.8847V1.43774H-3.69141V50.8847H4.30859ZM0.308594 5.43774H45.3909V-2.56226H0.308594V5.43774ZM56.0682 -3.52856C52.1283 -3.52856 48.3202 -3.17294 44.6624 -2.49534L46.1195 5.37083C49.291 4.78333 52.6112 4.47144 56.0682 4.47144V-3.52856ZM291.419 -3.52856L56.0682 -3.52856V4.47144L291.419 4.47144V-3.52856ZM456.812 161.865C456.812 70.5205 382.763 -3.52855 291.419 -3.52856V4.47144C378.345 4.47145 448.812 74.9388 448.812 161.865H456.812ZM456.812 248.426V161.865H448.812V248.426H456.812ZM354.877 252.426H452.812V244.426H354.877V252.426ZM350.877 161.865L350.877 248.426H358.877L358.877 161.865H350.877Z" fill="url(#paint1_linear_393_59)" fill-opacity="0.5" mask="url(#path-1-inside-1_393_59)"/>
<defs>
<linearGradient id="paint0_linear_393_59" x1="235.299" y1="0.471436" x2="234.21" y2="394.348" gradientUnits="userSpaceOnUse">
<stop stop-color="#C8FF80"/>
<stop offset="1"/>
</linearGradient>
<linearGradient id="paint1_linear_393_59" x1="-168.072" y1="-225.691" x2="235.299" y2="443.966" gradientUnits="userSpaceOnUse">
<stop stop-color="white"/>
<stop offset="1" stop-color="#999999" stop-opacity="0"/>
</linearGradient>
</defs>
</svg>
