<svg width="40" height="28" viewBox="0 0 40 28" fill="none" xmlns="http://www.w3.org/2000/svg">
<path d="M0.98645 3.34351H6.57003V27.9735H0.98645V3.34351Z" fill="black"/>
<path fill-rule="evenodd" clip-rule="evenodd" d="M17.189 8.74075C19.1396 8.74075 20.7209 10.322 20.7209 12.2727L20.7209 17.0904H26.1717V12.2727C26.1717 7.31163 22.15 3.28992 17.189 3.28992L4.08997 3.28992C1.37525 3.28992 -0.040157 6.52093 1.80039 8.51645L19.7466 27.9737H27.162L9.42264 8.74075L17.189 8.74075Z" fill="black"/>
<path d="M39.9666 6.10031H39.1403V2.18949L37.8535 5.16045H36.8064L35.5259 2.07595V6.10031H34.6996V0.650391H35.8224L37.3362 4.28998L38.9132 0.650391H39.9666V6.10031Z" fill="black"/>
<path d="M34.0086 0.668945V1.41957H31.7505V6.09994H30.9998V1.41957H28.7543V0.668945H34.0086Z" fill="black"/>
</svg>
