<svg width="169" height="18" viewBox="0 0 169 18" fill="none" xmlns="http://www.w3.org/2000/svg">
<path d="M168.634 17.0218H166.016L158.01 6.11083V16.9916H156.028V3.90139H158.827L166.666 14.5551V3.90139H168.634V17.0218Z" fill="white"/>
<path d="M141.838 10.8782C141.849 10.9589 141.859 11.0749 141.869 11.2262C141.889 11.3776 141.96 11.65 142.081 12.0434C142.202 12.4369 142.358 12.795 142.55 13.1179C143.397 14.5202 144.825 15.2214 146.832 15.2214C148.083 15.2214 149.052 14.8683 149.738 14.1621C149.899 14.0006 150.046 13.814 150.177 13.6021C150.318 13.3903 150.429 13.1885 150.51 12.9968C150.59 12.795 150.656 12.5882 150.706 12.3763C150.767 12.1645 150.812 11.9829 150.843 11.8315C150.873 11.6701 150.893 11.5138 150.903 11.3624C150.913 11.2111 150.918 11.1102 150.918 11.0598C150.928 10.9992 150.933 10.9538 150.933 10.9236V10.8782V10.8328C150.933 10.8126 150.933 10.7823 150.933 10.742C150.933 10.7016 150.933 10.6259 150.933 10.515C150.933 10.404 150.928 10.288 150.918 10.1669C150.918 10.0458 150.908 9.89955 150.888 9.72804C150.868 9.55653 150.838 9.38502 150.797 9.21351C150.767 9.042 150.722 8.8604 150.661 8.66872C150.601 8.46694 150.53 8.2803 150.449 8.10879C150.369 7.92719 150.268 7.74559 150.147 7.564C150.036 7.37231 149.909 7.19576 149.768 7.03434C149.012 6.19697 147.892 5.76819 146.409 5.74802C144.956 5.71775 143.851 6.10617 143.095 6.91327C142.832 7.18567 142.61 7.50851 142.429 7.88179C142.247 8.25508 142.121 8.60314 142.05 8.92598C141.98 9.24882 141.919 9.56662 141.869 9.87937C141.828 10.182 141.818 10.409 141.838 10.5604C141.859 10.7117 141.859 10.8075 141.838 10.8479V10.8782ZM146.832 17.0222C146.025 17.0222 145.284 16.9314 144.608 16.7498C143.942 16.5682 143.377 16.3211 142.913 16.0083C142.449 15.6955 142.06 15.3778 141.748 15.0549C141.445 14.722 141.183 14.3588 140.961 13.9653C140.719 13.5416 140.522 13.0826 140.371 12.5882C140.219 12.0939 140.128 11.7407 140.098 11.5289C140.068 11.3069 140.048 11.1152 140.038 10.9538C140.038 10.863 140.038 10.747 140.038 10.6058C140.038 10.4645 140.043 10.2375 140.053 9.92477C140.073 9.61202 140.118 9.28918 140.189 8.95625C140.26 8.62332 140.35 8.27021 140.461 7.89693C140.582 7.51355 140.754 7.13018 140.976 6.7468C141.208 6.35334 141.475 5.99519 141.778 5.67235C142.898 4.48187 144.451 3.90177 146.439 3.93204C148.447 3.9623 150.005 4.5979 151.115 5.83882C151.398 6.14148 151.64 6.47945 151.841 6.85274C152.053 7.21593 152.215 7.57913 152.326 7.94232C152.437 8.29543 152.522 8.63341 152.583 8.95625C152.654 9.269 152.694 9.57671 152.704 9.87937C152.724 10.1719 152.734 10.3939 152.734 10.5452C152.744 10.6865 152.744 10.8176 152.734 10.9387C152.734 11.1203 152.719 11.3422 152.689 11.6046C152.659 11.8568 152.598 12.2149 152.507 12.679C152.417 13.133 152.245 13.6072 151.993 14.1015C151.741 14.5858 151.423 15.0246 151.039 15.4181C150 16.4875 148.598 17.0222 146.832 17.0222Z" fill="white"/>
<path d="M136.29 17.0228H134.489V4.02346H136.29V17.0228Z" fill="white"/>
<path d="M130.892 3.99123V5.79208H125.474V17.0209H123.673V5.79208H118.286V3.99123H130.892Z" fill="white"/>
<path d="M113.469 15.2508C112.349 16.4312 110.72 17.0214 108.581 17.0214C106.452 17.0214 104.828 16.4312 103.708 15.2508C103.486 15.0087 103.284 14.7514 103.103 14.479C102.931 14.2066 102.795 13.9393 102.694 13.6769C102.603 13.4146 102.528 13.1725 102.467 12.9506C102.407 12.7185 102.361 12.4966 102.331 12.2847C102.311 12.0728 102.296 11.9165 102.286 11.8156C102.286 11.7046 102.291 11.6087 102.301 11.528V3.97659H104.268V11.5734V11.6037C104.268 11.6239 104.268 11.6491 104.268 11.6794C104.268 11.7096 104.273 11.7803 104.283 11.8912C104.293 11.9921 104.308 12.0981 104.329 12.209C104.349 12.3099 104.379 12.436 104.419 12.5874C104.46 12.7387 104.51 12.885 104.571 13.0262C104.631 13.1675 104.712 13.3188 104.813 13.4802C104.914 13.6315 105.03 13.7728 105.161 13.9039C105.887 14.6606 107.027 15.0389 108.581 15.0389C110.145 15.0389 111.29 14.6606 112.016 13.9039C112.198 13.7223 112.349 13.5206 112.47 13.2986C112.591 13.0666 112.677 12.8598 112.728 12.6782C112.788 12.4966 112.833 12.315 112.864 12.1334C112.894 11.9417 112.909 11.8156 112.909 11.755C112.909 11.6844 112.909 11.6289 112.909 11.5886V11.5583V11.5432V3.97659H114.892V11.528C114.892 11.6693 114.881 11.8408 114.861 12.0426C114.841 12.2443 114.796 12.5319 114.725 12.9052C114.654 13.2784 114.508 13.6769 114.286 14.1007C114.074 14.5143 113.802 14.8977 113.469 15.2508Z" fill="white"/>
<path d="M99.0323 17.0214L86.8501 16.9306V3.91604H88.8325V14.9633L99.0474 15.0389L99.0323 17.0214Z" fill="white"/>
<path d="M82.1324 17.0228H80.3315V4.02346H82.1324V17.0228Z" fill="white"/>
<path d="M70.3086 17.0214C70.2985 17.0214 70.2833 17.0214 70.2632 17.0214C70.243 17.0214 70.2279 17.0214 70.2178 17.0214H70.127C69.4107 17.0214 68.7549 16.976 68.1597 16.8852C67.5644 16.7843 67.06 16.6582 66.6463 16.5068C66.2428 16.3555 65.8796 16.1689 65.5568 15.9469C65.244 15.725 64.9918 15.503 64.8001 15.2811C64.6185 15.049 64.4672 14.8018 64.3461 14.5395C64.2351 14.2772 64.1544 14.0351 64.104 13.8131C64.0636 13.5912 64.0384 13.3642 64.0283 13.1322L66.0107 13.0716C66.0208 13.4651 66.1469 13.798 66.3891 14.0704C66.6413 14.3428 66.9793 14.5446 67.403 14.6757C67.8267 14.8069 68.2555 14.9027 68.6893 14.9633C69.1332 15.0137 69.6124 15.0389 70.127 15.0389H70.2178C71.8219 15.049 72.9367 14.9532 73.5622 14.7514C74.0162 14.6102 74.3239 14.4286 74.4853 14.2066C74.6467 13.9847 74.7275 13.7022 74.7275 13.3591C74.7275 13.1372 74.7073 12.9506 74.6669 12.7992C74.6266 12.6378 74.5156 12.4713 74.334 12.2998C74.1625 12.1283 73.9203 11.9871 73.6076 11.8761C73.2948 11.7651 72.8509 11.6743 72.2759 11.6037C71.7008 11.523 71.0047 11.4776 70.1875 11.4675C69.7638 11.4574 69.3653 11.4423 68.992 11.4221C68.6288 11.3918 68.2252 11.3464 67.7813 11.2859C67.3475 11.2153 66.954 11.1295 66.6009 11.0286C66.2579 10.9278 65.9149 10.7916 65.5719 10.62C65.2289 10.4384 64.9413 10.2316 64.7093 9.99959C64.4873 9.76754 64.3057 9.48001 64.1645 9.137C64.0233 8.79398 63.9526 8.41565 63.9526 8.00201C63.9526 6.6602 64.4722 5.65132 65.5114 4.97537C66.5404 4.30951 68.1597 3.97659 70.3691 3.97659C72.6693 3.97659 74.3794 4.5466 75.4992 5.68663C75.7716 5.97921 75.9986 6.29196 76.1802 6.62489C76.3719 6.94773 76.498 7.25039 76.5586 7.53288C76.6292 7.81537 76.6695 8.02723 76.6796 8.16847C76.6998 8.30972 76.7099 8.42574 76.7099 8.51654L74.7426 8.47114L74.7275 8.48627C74.7275 8.42574 74.7224 8.35511 74.7123 8.27441C74.7022 8.18361 74.6669 8.05245 74.6064 7.88094C74.5459 7.69934 74.4601 7.53288 74.3491 7.38155C74.2381 7.22013 74.0717 7.04862 73.8497 6.86702C73.6379 6.68542 73.3806 6.52905 73.0779 6.39789C72.7854 6.26674 72.402 6.16081 71.9278 6.0801C71.4637 5.9893 70.9442 5.9439 70.3691 5.9439C69.7638 5.9439 69.219 5.97416 68.7347 6.0347C68.2505 6.08514 67.8519 6.15072 67.5392 6.23143C67.2365 6.30205 66.9742 6.40294 66.7523 6.53409C66.5404 6.66525 66.379 6.78631 66.268 6.89729C66.1671 6.99817 66.0864 7.12933 66.0259 7.29075C65.9754 7.45217 65.9452 7.57828 65.9351 7.66908C65.9351 7.74979 65.9351 7.86077 65.9351 8.00201C65.9351 8.17352 65.9553 8.31476 65.9956 8.42574C66.0461 8.53671 66.1469 8.64265 66.2983 8.74353C66.954 9.20762 68.2605 9.45479 70.2178 9.48506C70.5507 9.49515 70.813 9.50524 71.0047 9.51533C71.1964 9.51533 71.489 9.53046 71.8824 9.56072C72.2759 9.59099 72.5987 9.63135 72.8509 9.68179C73.1032 9.72215 73.4109 9.78772 73.7741 9.87852C74.1473 9.96932 74.4551 10.0803 74.6972 10.2115C74.9494 10.3325 75.2117 10.4939 75.4841 10.6957C75.7565 10.8874 75.9734 11.1094 76.1348 11.3616C76.3063 11.6037 76.4425 11.8963 76.5434 12.2393C76.6544 12.5722 76.7099 12.9455 76.7099 13.3591C76.7099 13.6719 76.6746 13.9746 76.604 14.2671C76.5333 14.5597 76.4072 14.8624 76.2256 15.1751C76.0541 15.4778 75.7918 15.7603 75.4387 16.0226C75.0856 16.2849 74.6568 16.4917 74.1524 16.643C73.7791 16.754 73.3503 16.8398 72.8661 16.9003C72.3818 16.9608 71.9682 16.9962 71.6252 17.0062C71.2922 17.0163 70.8534 17.0214 70.3086 17.0214Z" fill="white"/>
<path d="M51.188 5.89848V9.86337H58.8757V11.8307H51.188V15.0389H60.4949V17.0214H49.2056V3.91604H60.4949V5.89848H51.188Z" fill="white"/>
<path d="M42.6149 10.7113C43.2505 10.338 43.5683 9.67218 43.5683 8.71375C43.5683 7.61407 43.2 6.83724 42.4636 6.38324C42.1205 6.17138 41.7624 6.04527 41.3891 6.00491L34.8364 5.98978V11.0291H41.495C41.8784 11.019 42.2517 10.9131 42.6149 10.7113ZM43.4624 12.4516C43.9567 12.8754 44.3653 13.3899 44.6881 13.9952C45.0211 14.5905 45.243 15.1353 45.354 15.6296C45.4751 16.124 45.5356 16.588 45.5356 17.0219H43.5683C43.5683 16.9815 43.5632 16.926 43.5532 16.8554C43.5431 16.7848 43.5279 16.6637 43.5078 16.4922C43.4876 16.3207 43.4523 16.1492 43.4018 15.9777C43.3514 15.7961 43.2858 15.5943 43.2051 15.3723C43.1244 15.1504 43.0134 14.9385 42.8722 14.7368C42.7309 14.5249 42.5695 14.3231 42.3879 14.1314C42.2063 13.9397 41.9793 13.7682 41.7069 13.6169C41.4345 13.4555 41.1419 13.3294 40.8292 13.2386C40.355 13.1175 38.4533 13.0217 35.124 12.951H34.8364V17.0219H32.854V3.96194L41.4799 3.9922C42.1659 4.02247 42.8419 4.24442 43.5078 4.65806C44.8596 5.49543 45.5356 6.83219 45.5356 8.66835C45.5356 9.5259 45.359 10.2775 45.0059 10.9232C44.6629 11.5689 44.1585 12.0683 43.4926 12.4214C43.4825 12.4315 43.4724 12.4416 43.4624 12.4516Z" fill="white"/>
<path d="M0.807129 2.41799H4.05941V16.7643H0.807129V2.41799Z" fill="#C8FF80"/>
<path fill-rule="evenodd" clip-rule="evenodd" d="M10.244 5.5617C11.3802 5.5617 12.3013 6.48276 12.3013 7.61894L12.3013 10.4252H15.4762V7.61894C15.4762 4.72928 13.1337 2.38674 10.244 2.38674L2.61423 2.38674C1.03298 2.38674 0.208549 4.26872 1.28062 5.43105L11.7338 16.7643H16.053L5.72036 5.5617L10.244 5.5617Z" fill="#C8FF80"/>
<path d="M23.5107 4.02306H23.0294V1.74511L22.2798 3.47562H21.6699L20.9241 1.67898V4.02306H20.4428V0.848633H21.0968L21.9786 2.96859L22.8971 0.848633H23.5107V4.02306Z" fill="white"/>
<path d="M20.0406 0.859375V1.29659H18.7253V4.02278H18.2881V1.29659H16.9801V0.859375H20.0406Z" fill="white"/>
</svg>
