<?xml version="1.0" encoding="utf-8"?>
<!DOCTYPE svg PUBLIC "-//W3C//DTD SVG 1.0//EN" "http://www.w3.org/TR/2001/REC-SVG-20010904/DTD/svg10.dtd">
<svg version="1.0" xmlns="http://www.w3.org/2000/svg" width="288px" height="288px" viewBox="0 0 288 288" preserveAspectRatio="xMidYMid meet">
 <g fill="#c8ff80">
  <path d="M0 144 l0 -144 144 0 144 0 0 144 0 144 -144 0 -144 0 0 -144z m84 39.25 l0 -63.25 1.90 0 c1.65 0 2.20 0.40 4.85 3.30 1.65 1.80 4.70 5.10 6.80 7.35 2.05 2.25 5.85 6.35 8.35 9.10 2.55 2.75 6.65 7.15 9.10 9.80 2.50 2.65 4.50 4.90 4.50 5.05 0 0.15 1.75 2.05 3.90 4.25 8.85 9.05 12.60 13.05 12.60 13.45 0 0.20 2.15 2.65 4.80 5.40 2.65 2.80 6.60 6.95 8.75 9.30 7.85 8.50 21.55 23.40 26.55 28.85 2.85 3.10 6.80 7.40 8.80 9.50 2 2.15 5.45 5.80 7.60 8.15 2.15 2.35 5.80 6.20 8.10 8.65 l4.15 4.35 29.60 -0.10 29.55 -0.15 -3.30 -3.65 c-1.85 -2.05 -5.35 -5.90 -7.85 -8.55 -2.45 -2.70 -6.45 -7 -8.85 -9.60 -2.40 -2.60 -8 -8.65 -12.55 -13.45 -4.50 -4.80 -8.40 -9.10 -8.65 -9.60 -0.45 -0.80 -6.10 -6.85 -14 -14.95 -2.05 -2.10 -3.70 -3.95 -3.70 -4.15 0 -0.20 -1.85 -2.25 -4.10 -4.55 -2.30 -2.35 -6.30 -6.60 -8.90 -9.55 -2.60 -2.90 -6 -6.60 -7.50 -8.20 -2.70 -2.80 -8.75 -9.30 -17.75 -19.15 -2.45 -2.70 -6.50 -7.10 -9 -9.80 -2.45 -2.65 -6.50 -7.05 -9 -9.75 -2.45 -2.70 -6.20 -6.75 -8.30 -8.95 -2.10 -2.25 -5.85 -6.35 -8.40 -9.10 -2.50 -2.75 -6.25 -6.80 -8.25 -9 -14.95 -16.10 -14.30 -15.30 -14.30 -17.10 l0 -1.70 39.65 0.15 c37.05 0.15 39.75 0.20 41.60 1.05 5.80 2.65 8.45 4.10 10.25 5.60 1.10 0.90 2.15 1.75 2.35 1.85 0.90 0.35 5.60 6.80 5.90 8.05 0.20 0.75 0.50 1.35 0.70 1.35 0.60 0 1.60 2.50 2.45 6.25 0.65 2.90 0.85 7.60 0.95 26.65 l0.15 23.10 22.50 0 22.50 0 -0.15 -24.10 c-0.15 -14.60 -0.40 -25.25 -0.75 -26.90 -2.40 -12.25 -4.90 -19.75 -8.80 -26.25 -0.95 -1.65 -2.15 -3.85 -2.65 -4.85 -0.50 -1.05 -1.05 -1.90 -1.25 -1.90 -0.15 0 -0.85 -0.85 -1.45 -1.85 -2.25 -3.70 -9 -10.95 -14 -15 -1.30 -1.05 -2.80 -2.30 -3.40 -2.80 -0.60 -0.45 -1.20 -0.85 -1.35 -0.85 -0.15 0 -1.15 -0.60 -2.15 -1.35 -1 -0.80 -2.35 -1.70 -3 -2.10 -4.80 -2.70 -8.75 -4.60 -11.55 -5.55 -1.80 -0.60 -3.60 -1.25 -4 -1.50 -0.45 -0.20 -1.55 -0.55 -2.50 -0.75 -0.95 -0.20 -2 -0.55 -2.30 -0.80 -0.30 -0.25 -2.75 -0.70 -5.50 -1 -2.70 -0.30 -5.35 -0.75 -5.80 -1 -1.05 -0.50 -108.80 -0.60 -133.80 -0.10 l-16.60 0.30 0 107.70 0 107.65 23.25 0 23.25 0 0 -63.25z"/>
 </g>
 <g fill="#000000">
  <path d="M36.20 248.05 c-0.10 -0.10 -0.20 -49.40 -0.20 -109.50 l0 -109.30 76.20 -0.20 c41.95 -0.10 76.55 0.05 76.90 0.25 0.35 0.25 1.55 0.50 2.65 0.55 2.80 0.15 8.40 1.15 9 1.65 0.30 0.20 1.30 0.55 2.25 0.75 0.95 0.20 2.05 0.55 2.50 0.75 0.40 0.25 2.20 0.90 4 1.50 2.80 0.95 6.75 2.85 11.55 5.55 0.65 0.40 2 1.30 3 2.10 1 0.75 2 1.35 2.15 1.35 0.15 0 0.75 0.40 1.35 0.85 0.60 0.50 2.10 1.75 3.40 2.80 5 4.05 11.75 11.30 14 15 0.60 1 1.35 1.85 1.60 1.85 0.25 0 0.45 0.30 0.45 0.70 0 0.35 0.35 0.95 0.75 1.30 0.40 0.35 0.65 0.80 0.50 1 -0.15 0.25 -0.05 0.55 0.20 0.70 1.95 1.20 9.05 18.60 9.05 22.10 0 0.65 0.20 1.20 0.45 1.20 0.25 0 0.45 0.60 0.50 1.40 0 0.75 0.30 2.70 0.60 4.35 0.40 2 0.65 11.70 0.80 28.65 l0.15 25.60 -24 0 -24 0 -0.15 -23.10 c-0.10 -19.05 -0.30 -23.75 -0.95 -26.65 -0.85 -3.75 -1.85 -6.25 -2.45 -6.25 -0.20 0 -0.50 -0.60 -0.70 -1.35 -0.30 -1.25 -5 -7.70 -5.90 -8.05 -0.20 -0.10 -1.25 -0.95 -2.35 -1.85 -2.10 -1.75 -8.40 -5.05 -10.50 -5.45 -0.15 -0.05 -0.60 -0.30 -1 -0.55 -0.45 -0.30 -15 -0.55 -39 -0.65 l-38.20 -0.15 1.20 1.40 c0.70 0.75 3 3.30 5.20 5.65 4.30 4.60 9.25 9.95 16.35 17.75 2.55 2.75 6.30 6.85 8.40 9.10 2.10 2.20 5.85 6.25 8.30 8.95 2.50 2.70 6.55 7.10 9 9.75 2.50 2.70 6.55 7.10 9 9.80 9 9.85 15.05 16.35 17.75 19.15 1.50 1.60 4.90 5.30 7.50 8.20 2.60 2.95 6.60 7.20 8.90 9.55 2.25 2.30 4.10 4.35 4.10 4.55 0 0.20 1.65 2.05 3.70 4.15 7.90 8.10 13.55 14.15 14 14.95 0.25 0.50 4.15 4.80 8.65 9.60 7.75 8.25 10.65 11.40 21.40 23.05 2.50 2.70 6.55 7.05 9 9.70 2.50 2.70 4.55 5.05 4.65 5.30 0.10 0.25 -13.65 0.50 -32.15 0.55 l-32.30 0.15 -4.25 -4.50 c-2.35 -2.45 -6.05 -6.40 -8.20 -8.75 -2.15 -2.35 -5.60 -6 -7.60 -8.15 -2 -2.10 -5.95 -6.40 -8.80 -9.50 -5 -5.45 -18.70 -20.35 -26.55 -28.85 -2.15 -2.35 -6.10 -6.50 -8.75 -9.30 -2.65 -2.75 -4.80 -5.20 -4.80 -5.40 0 -0.40 -3.75 -4.40 -12.60 -13.45 -2.15 -2.20 -3.90 -4.10 -3.90 -4.25 0 -0.15 -2 -2.40 -4.50 -5.05 -2.45 -2.65 -6.55 -7.05 -9.10 -9.80 -2.50 -2.75 -6.30 -6.85 -8.35 -9.10 -2.10 -2.25 -5.15 -5.55 -6.80 -7.35 -1.65 -1.80 -3.15 -3.30 -3.35 -3.30 -0.25 0 -0.40 28.45 -0.40 63.25 l0 63.25 -24.55 0.10 c-13.50 0.10 -24.65 0.05 -24.75 -0.05z"/>
  <path d="M241.50 30.75 c0 -4.20 0.10 -4.80 0.80 -4.65 0.45 0.10 1 0.50 1.20 0.90 0.20 0.40 0.70 1.45 1.15 2.25 0.40 0.85 0.75 1.70 0.75 2 0.05 1.05 1 0.70 1.30 -0.45 0.45 -1.90 2.30 -4.80 3.05 -4.80 0.45 0 0.65 1.20 0.70 4.50 0.05 3.65 -0.05 4.50 -0.65 4.50 -0.55 0 -0.70 -0.65 -0.65 -2.85 0.05 -1.95 -0.10 -2.90 -0.55 -3.05 -0.35 -0.10 -0.60 0.10 -0.55 0.45 0.15 0.90 -1.45 4.45 -2 4.45 -0.60 0 -2 -2.25 -2.20 -3.50 -0.10 -0.55 -0.45 -1.30 -0.75 -1.60 -0.70 -0.70 -0.75 -0.50 -0.60 3.40 0.05 1.45 -0.15 2.75 -0.45 2.95 -0.40 0.20 -0.55 -1.20 -0.55 -4.50z"/>
  <path d="M235 31 l0 -4 -2 0 c-1.10 0 -2 -0.20 -2 -0.50 0 -0.30 1.80 -0.50 4.45 -0.50 2.50 0 4.65 0.25 4.80 0.50 0.20 0.30 -0.60 0.50 -1.95 0.50 l-2.30 0 0 4 c0 2.35 -0.20 4 -0.50 4 -0.30 0 -0.50 -1.65 -0.50 -4z"/>
 </g>
</svg>
